<svg id="new-logo" xmlns="http://www.w3.org/2000/svg" version="1.1" viewBox="195 303 215 155" width="200px" height="200px">
    <defs>
        <style>
            .st0 {
                fill: #C9A84C;
            }
        </style>
    </defs>
    <path class="st0"
        d="M399.74,308.92c-8.31,6.35-19.55,14.83-33.15,24.82-2.67,1.96-6.37,1.53-8.57-.94-3.58-4.01-9.02-6.31-14.95-5.53-7.69,1.01-13.74,7.2-14.57,14.91-.29,2.72.05,5.32.91,7.68h0s1.29,2.75,1.29,2.75l5.56,11.31c.98,1.6,2.02,3.35,3.01,4.7.81,1.11,2.37,1.3,3.66,1.28,1.29-.02,2.58-.48,3.62-1.37l17.97-15.51c1.74-1.5,4.21.67,2.94,2.59l-19.05,22.62c-3.9,4.96-11.26,5.41-15.74.95l-10.3-11.2c-1.38-1.62-2.94-3.69-4.75-2.57l-117.01,79.63c-5.04,3.04-1.18,10.72,4.26,8.49l108.82-44.61c12.8-5.51,18.34,2.13,18.03,13.97l-1.13,25.53c-.23,5.15,6.74,6.94,9.03,2.33l17.79-35.94c2.14-4.32,2.62-9.28,1.35-13.94-.32-1.18-.49-2.38-.5-3.58-.04-2.72.7-5.42,2.17-7.77l46.49-74.71c2.24-4.52-3.16-8.96-7.16-5.9" />
</svg>