<?xml version="1.0" encoding="UTF-8"?>
<svg xmlns="http://www.w3.org/2000/svg" xmlns:xlink="http://www.w3.org/1999/xlink" width="425.197" height="283.465" viewBox="0 0 425.197 283.465">
<path fill-rule="nonzero" fill="rgb(100%, 100%, 100%)" fill-opacity="1" d="M 201.085938 152.105469 C 196.40625 152.105469 194.375 149.808594 194.109375 146.902344 L 185.550781 149.535156 C 186.035156 154.546875 189.824219 159.839844 199.4375 159.839844 C 208.984375 159.839844 215.472656 153.597656 216.6875 147.464844 C 217.792969 141.882812 214.789062 137.078125 207.4375 135.695312 L 202.269531 134.699219 C 199.601562 134.203125 198.6875 132.820312 199.0625 130.945312 C 199.488281 128.789062 202.039062 126.746094 205.371094 126.746094 C 208.765625 126.746094 210.230469 128.253906 210.777344 129.785156 L 219.308594 127.164062 C 218.53125 123.128906 215.34375 119.011719 206.960938 119.011719 C 199.277344 119.011719 191.585938 124.203125 190.121094 131.605469 C 188.972656 137.40625 192.21875 141.824219 198.746094 143.097656 L 204.027344 144.09375 C 206.582031 144.589844 207.9375 146.027344 207.542969 148.011719 C 207.0625 150.445312 204.585938 152.105469 201.085938 152.105469 "/>
<path fill-rule="nonzero" fill="rgb(100%, 100%, 100%)" fill-opacity="1" d="M 218.476562 145.089844 L 215.714844 159.039062 L 224.636719 159.039062 L 226.71875 148.542969 L 232.207031 143.625 L 239.941406 159.039062 L 254.902344 159.039062 L 259.355469 151.082031 L 274.828125 151.082031 L 276.136719 159.039062 L 285.847656 159.039062 L 282.941406 143.128906 L 263.867188 143.128906 L 271.460938 129.589844 L 273.582031 143.125 L 281.722656 136.4375 L 278.695312 119.867188 L 268.359375 119.867188 L 248.492188 153.949219 L 239.824219 136.828125 L 258.769531 119.867188 L 247.023438 119.867188 L 229.136719 136.332031 Z M 218.476562 145.089844 "/>
<path fill-rule="nonzero" fill="rgb(100%, 100%, 100%)" fill-opacity="1" d="M 232.390625 119.867188 L 223.46875 119.867188 L 220.207031 136.332031 L 229.132812 136.332031 Z M 232.390625 119.867188 "/>
<path fill-rule="nonzero" fill="rgb(100%, 100%, 100%)" fill-opacity="1" d="M 302.261719 128.183594 L 291.605469 136.941406 L 287.234375 159.011719 L 296.160156 159.011719 Z M 302.261719 128.183594 "/>
<path fill-rule="nonzero" fill="rgb(100%, 100%, 100%)" fill-opacity="1" d="M 302.261719 128.183594 L 312.851562 128.183594 L 314.503906 119.839844 L 284.457031 119.839844 L 282.804688 128.183594 Z M 302.261719 128.183594 "/>
<path fill-rule="nonzero" fill="rgb(100%, 100%, 100%)" fill-opacity="1" d="M 339.578125 128.101562 L 341.207031 119.867188 L 315.851562 119.867188 L 311.222656 143.238281 L 335.058594 143.238281 L 336.574219 135.558594 L 321.664062 135.558594 L 323.140625 128.101562 Z M 339.578125 128.101562 "/>
<path fill-rule="nonzero" fill="rgb(100%, 100%, 100%)" fill-opacity="1" d="M 320.148438 143.238281 L 309.488281 151.992188 L 308.09375 159.039062 L 333.511719 159.039062 L 335.152344 150.75 L 318.660156 150.75 Z M 320.148438 143.238281 "/>
<path fill-rule="nonzero" fill="rgb(100%, 100%, 100%)" fill-opacity="1" d="M 183.824219 161.3125 L 182.25 169.261719 L 191.226562 169.261719 L 192.796875 161.3125 Z M 183.824219 161.3125 "/>
<path fill-rule="nonzero" fill="rgb(100%, 100%, 100%)" fill-opacity="1" d="M 176.117188 200.21875 L 185.09375 200.21875 L 191.222656 169.261719 L 180.503906 178.066406 Z M 176.117188 200.21875 "/>
<path fill-rule="nonzero" fill="rgb(100%, 100%, 100%)" fill-opacity="1" d="M 222.558594 169.570312 L 224.199219 161.285156 L 194.375 161.285156 L 192.734375 169.570312 L 212.050781 169.570312 L 201.464844 178.269531 L 197.121094 200.191406 L 205.984375 200.191406 L 212.050781 169.570312 Z M 222.558594 169.570312 "/>
<path fill-rule="nonzero" fill="rgb(100%, 100%, 100%)" fill-opacity="1" d="M 226.378906 184.414062 L 233.925781 170.96875 L 236.03125 184.414062 L 244.117188 177.769531 L 241.109375 161.3125 L 230.84375 161.3125 L 208.160156 200.21875 L 217.472656 200.21875 L 221.898438 192.316406 L 237.269531 192.316406 L 238.566406 200.21875 L 248.21875 200.21875 L 245.328125 184.414062 Z M 226.378906 184.414062 "/>
<path fill-rule="nonzero" fill="rgb(100%, 100%, 100%)" fill-opacity="1" d="M 259.066406 191.933594 L 265.128906 161.3125 L 256.265625 161.3125 L 250.203125 191.933594 L 259.066406 191.933594 L 248.980469 200.222656 L 274 200.222656 L 275.640625 191.933594 Z M 259.066406 191.933594 "/>
<path fill-rule="nonzero" fill="rgb(100%, 100%, 100%)" fill-opacity="1" d="M 281.476562 169.261719 L 290.453125 169.261719 L 292.027344 161.3125 L 283.050781 161.3125 Z M 281.476562 169.261719 "/>
<path fill-rule="nonzero" fill="rgb(100%, 100%, 100%)" fill-opacity="1" d="M 279.730469 178.066406 L 275.347656 200.21875 L 284.324219 200.21875 L 290.453125 169.261719 Z M 279.730469 178.066406 "/>
<path fill-rule="nonzero" fill="rgb(100%, 100%, 100%)" fill-opacity="1" d="M 303.316406 184.414062 L 310.859375 170.96875 L 312.964844 184.414062 L 321.050781 177.769531 L 318.042969 161.3125 L 307.777344 161.3125 L 285.09375 200.21875 L 294.410156 200.21875 L 298.835938 192.316406 L 314.207031 192.316406 L 315.503906 200.21875 L 325.152344 200.21875 L 322.265625 184.414062 Z M 303.316406 184.414062 "/>
<path fill-rule="nonzero" fill="rgb(100%, 100%, 100%)" fill-opacity="1" d="M 191.710938 110.914062 C 188.339844 99.277344 180.226562 91.800781 169.535156 88.179688 C 146.601562 80.40625 118.660156 101.691406 107.128906 135.71875 C 95.601562 169.742188 104.867188 203.03125 127.800781 210.804688 C 139.316406 214.703125 151.476562 211.050781 162.253906 202.25 C 148.675781 215.492188 132.597656 221.496094 117.5 216.378906 C 90.882812 207.359375 80.101562 168.8125 93.441406 129.433594 C 106.785156 90.054688 139.179688 65.441406 165.796875 74.460938 C 180.71875 79.519531 193.625 95.292969 194.421875 117.984375 C 192.355469 115.914062 192.597656 113.96875 191.710938 110.914062 "/>
<path fill-rule="nonzero" fill="rgb(89.399719%, 0%, 16.899109%)" fill-opacity="1" d="M 191.503906 110.230469 C 188.335938 96.867188 180.140625 87.324219 168.96875 83.671875 C 145.355469 75.957031 115.988281 98.714844 103.378906 134.5 C 90.769531 170.289062 99.691406 205.554688 123.304688 213.273438 C 137.582031 217.9375 153.949219 211.453125 167.453125 197.707031 C 155.65625 208.390625 141.910156 213.15625 129.8125 209.203125 C 108.121094 202.113281 99.925781 169.71875 111.507812 136.847656 C 123.089844 103.972656 150.0625 83.070312 171.753906 90.15625 C 180.8125 93.117188 188.09375 100 191.507812 110.230469 Z M 191.503906 110.230469 "/>
<path fill-rule="nonzero" fill="rgb(0%, 62.399292%, 30.198669%)" fill-opacity="1" d="M 194.421875 117.984375 C 194.285156 97.613281 186.828125 78.921875 166.214844 71.359375 C 138.847656 61.324219 104.910156 84.238281 90.054688 123.425781 C 76.347656 159.585938 83.832031 196.609375 106.445312 210.3125 C 88.613281 195.410156 83.664062 162.277344 96.019531 129.6875 C 110.398438 91.75 142.761719 68.9375 168.296875 78.730469 C 182.898438 84.328125 192.710938 98.34375 194.421875 117.984375 Z M 194.421875 117.984375 "/>
<path fill-rule="nonzero" fill="rgb(89.399719%, 0%, 16.899109%)" fill-opacity="1" d="M 175.964844 157.242188 C 168.578125 180.015625 151.964844 195.03125 138.859375 190.785156 C 130 187.925781 125.035156 176.960938 125.035156 163.136719 C 125.035156 159.085938 125.457031 154.804688 126.332031 150.402344 C 123.226562 167.453125 127.703125 182.398438 137.773438 185.644531 C 149.492188 189.453125 164.367188 176.015625 170.980469 155.628906 C 177.59375 135.242188 173.457031 115.628906 161.71875 111.824219 C 151.316406 108.4375 138.421875 118.648438 131.035156 135.226562 C 139.191406 116.242188 153.824219 104.472656 165.613281 108.3125 C 178.71875 112.558594 183.347656 134.472656 175.964844 157.242188 "/>
<path fill-rule="nonzero" fill="rgb(100%, 100%, 100%)" fill-opacity="1" d="M 161.71875 111.824219 C 151.316406 108.4375 138.421875 118.648438 131.035156 135.226562 L 131.007812 135.285156 C 131.03125 135.292969 131.0625 135.316406 131.089844 135.328125 C 137.71875 120.980469 148.929688 112.191406 158.050781 115.15625 C 168.472656 118.542969 172.175781 135.980469 166.28125 154.101562 C 160.402344 172.222656 147.175781 184.191406 136.734375 180.804688 C 128 177.960938 124.035156 165.207031 126.472656 150.453125 C 126.492188 150.453125 126.445312 150.453125 126.460938 150.453125 L 126.332031 150.402344 C 123.226562 167.453125 127.703125 182.398438 137.769531 185.644531 C 149.488281 189.453125 164.367188 176.015625 170.980469 155.628906 C 177.59375 135.242188 173.453125 115.628906 161.71875 111.824219 "/>
<path fill-rule="nonzero" fill="rgb(0%, 62.399292%, 30.198669%)" fill-opacity="1" d="M 166.28125 154.101562 C 160.402344 172.226562 147.175781 184.191406 136.734375 180.804688 C 128 177.960938 124.035156 165.207031 126.472656 150.453125 C 126.492188 150.453125 126.507812 150.472656 126.527344 150.472656 C 124.789062 162.890625 128.261719 173.472656 135.699219 175.875 C 136.507812 176.136719 137.332031 176.296875 138.175781 176.347656 C 146.804688 176.945312 156.824219 166.996094 161.507812 152.558594 C 166.191406 138.136719 163.945312 124.191406 156.613281 119.59375 C 155.894531 119.15625 155.121094 118.789062 154.316406 118.523438 C 146.542969 115.980469 136.964844 123.277344 131.140625 135.347656 C 131.121094 135.347656 131.105469 135.332031 131.085938 135.332031 C 137.71875 120.980469 148.929688 112.191406 158.050781 115.15625 C 168.472656 118.542969 172.175781 135.980469 166.28125 154.101562 "/>
</svg>
