<?xml version="1.0" encoding="UTF-8"?>
<svg xmlns="http://www.w3.org/2000/svg" xmlns:xlink="http://www.w3.org/1999/xlink" width="1586" height="525" viewBox="0 0 1586 525">
<rect x="-158.6" y="-52.5" width="1903.2" height="630" fill="rgb(0%, 3.529358%, 15.293884%)" fill-opacity="1"/>
<path fill-rule="nonzero" fill="rgb(100%, 100%, 100%)" fill-opacity="1" d="M 183.136719 365.429688 C 187.15625 364.773438 190.3125 363.230469 192.601562 360.800781 C 195.078125 358.183594 196.316406 354.722656 196.316406 350.421875 C 196.316406 345.511719 194.800781 341.621094 191.761719 338.746094 C 188.722656 335.871094 184.535156 334.433594 179.207031 334.433594 L 139.167969 334.433594 L 139.167969 385.203125 L 147.582031 385.203125 L 147.582031 365.847656 L 173.210938 365.847656 L 186.949219 385.203125 L 196.738281 385.203125 Z M 147.582031 358.273438 L 147.582031 342.007812 L 177.175781 342.007812 C 184.1875 342.007812 187.691406 344.8125 187.691406 350.421875 C 187.691406 355.660156 184.441406 358.273438 177.945312 358.273438 Z M 260.691406 339.691406 C 254.707031 335.109375 247.300781 332.820312 238.464844 332.820312 C 229.671875 332.820312 222.238281 335.109375 216.164062 339.691406 C 209.242188 344.929688 205.785156 351.613281 205.785156 359.75 C 205.785156 368.023438 209.195312 374.730469 216.023438 379.875 C 222.007812 384.410156 229.488281 386.675781 238.464844 386.675781 C 247.34375 386.675781 254.777344 384.433594 260.761719 379.945312 C 267.589844 374.800781 271 368.070312 271 359.75 C 271 351.613281 267.566406 344.929688 260.691406 339.691406 M 255.75 373.632812 C 251.425781 377.1875 245.660156 378.960938 238.464844 378.960938 C 231.214844 378.960938 225.417969 377.199219 221.070312 373.667969 C 216.722656 370.136719 214.550781 365.5 214.550781 359.75 C 214.550781 354.183594 216.769531 349.59375 221.210938 345.96875 C 225.652344 342.347656 231.402344 340.535156 238.464844 340.535156 C 244.914062 340.535156 250.3125 342.125 254.660156 345.300781 C 259.710938 348.996094 262.234375 353.8125 262.234375 359.75 C 262.234375 365.453125 260.070312 370.082031 255.75 373.632812 M 331.519531 377.628906 L 292.316406 377.628906 L 292.316406 334.433594 L 283.902344 334.433594 L 283.902344 385.203125 L 331.519531 385.203125 Z M 387.617188 377.628906 L 348.417969 377.628906 L 348.417969 334.433594 L 340.003906 334.433594 L 340.003906 385.203125 L 387.617188 385.203125 Z M 449.257812 377.628906 L 404.515625 377.628906 L 404.515625 362.625 L 434.25 362.625 L 434.25 355.050781 L 404.515625 355.050781 L 404.515625 342.007812 L 447.292969 342.007812 L 447.292969 334.433594 L 396.101562 334.433594 L 396.101562 385.203125 L 449.257812 385.203125 Z M 504.515625 365.429688 C 508.535156 364.773438 511.691406 363.230469 513.980469 360.800781 C 516.457031 358.183594 517.699219 354.722656 517.699219 350.421875 C 517.699219 345.511719 516.179688 341.621094 513.140625 338.746094 C 510.101562 335.871094 505.917969 334.433594 500.585938 334.433594 L 460.546875 334.433594 L 460.546875 385.203125 L 468.960938 385.203125 L 468.960938 365.847656 L 494.589844 365.847656 L 508.328125 385.203125 L 518.117188 385.203125 Z M 468.960938 358.273438 L 468.960938 342.007812 L 498.554688 342.007812 C 505.566406 342.007812 509.070312 344.8125 509.070312 350.421875 C 509.070312 355.660156 505.824219 358.273438 499.324219 358.273438 Z M 574.007812 358.976562 L 545.1875 358.976562 L 545.1875 366.621094 L 574.007812 366.621094 Z M 654.578125 340.675781 C 647.191406 335.671875 638.027344 333.171875 627.089844 333.171875 C 618.953125 333.171875 612.65625 334.550781 608.191406 337.308594 C 603.726562 340.066406 601.492188 343.832031 601.492188 348.597656 C 601.492188 353.226562 603.457031 356.523438 607.386719 358.484375 C 610.75 360.167969 616.617188 361.292969 624.984375 361.851562 C 634.429688 362.460938 640.226562 363.042969 642.375 363.605469 C 646.488281 364.679688 648.546875 366.832031 648.546875 370.054688 C 648.546875 372.816406 646.980469 374.988281 643.847656 376.578125 C 640.578125 378.214844 635.972656 379.03125 630.035156 379.03125 C 620.871094 379.03125 612.316406 376.601562 604.367188 371.738281 L 599.742188 377.839844 C 606.941406 383.542969 617.015625 386.394531 629.964844 386.394531 C 638.894531 386.394531 645.742188 384.921875 650.511719 381.976562 C 655.28125 379.03125 657.664062 374.871094 657.664062 369.496094 C 657.664062 365.289062 656.144531 362.039062 653.105469 359.75 C 650.066406 357.457031 645.367188 355.890625 639.011719 355.050781 C 636.765625 354.769531 632.140625 354.394531 625.125 353.929688 C 620.359375 353.648438 616.921875 353.132812 614.816406 352.386719 C 611.871094 351.355469 610.398438 349.71875 610.398438 347.476562 C 610.398438 345.328125 611.777344 343.644531 614.535156 342.425781 C 617.292969 341.210938 621.269531 340.605469 626.457031 340.605469 C 634.265625 340.605469 641.933594 342.519531 649.457031 346.355469 Z M 699.523438 353.640625 L 725.488281 334.433594 L 713.339844 334.433594 L 677.789062 360.730469 L 677.789062 334.433594 L 669.375 334.433594 L 669.375 385.203125 L 677.789062 385.203125 L 677.789062 369.800781 L 693.15625 358.523438 L 717.464844 385.203125 L 728.277344 385.203125 Z M 765.375 334.433594 L 754.785156 334.433594 L 727.929688 385.203125 L 737.132812 385.203125 L 742.980469 373.84375 L 777.179688 373.84375 L 783.027344 385.203125 L 792.234375 385.203125 Z M 747.066406 366.269531 L 760.160156 341.671875 L 773.09375 366.269531 Z M 850.226562 334.433594 L 793.285156 334.433594 L 793.285156 342.007812 L 817.546875 342.007812 L 817.546875 385.203125 L 825.960938 385.203125 L 825.960938 342.007812 L 850.226562 342.007812 Z M 867.125 334.433594 L 858.710938 334.433594 L 858.710938 385.203125 L 867.125 385.203125 Z M 940.335938 334.433594 L 931.917969 334.433594 L 931.917969 376.089844 L 893.140625 334.433594 L 882.691406 334.433594 L 882.691406 385.203125 L 891.105469 385.203125 L 891.105469 343.570312 L 929.867188 385.203125 L 940.335938 385.203125 Z M 1018.171875 358.273438 L 984.023438 358.273438 L 984.023438 365.847656 L 1007.652344 365.847656 C 1004.289062 374.589844 996.996094 378.960938 985.777344 378.960938 C 978.621094 378.960938 972.871094 377.1875 968.523438 373.632812 C 964.175781 370.082031 962.003906 365.453125 962.003906 359.75 C 962.003906 353.8125 964.527344 348.996094 969.578125 345.300781 C 973.925781 342.125 979.324219 340.535156 985.777344 340.535156 C 994.050781 340.535156 1000.828125 343.363281 1006.113281 349.019531 L 1013.964844 345.09375 C 1006.8125 336.910156 997.648438 332.820312 986.476562 332.820312 C 977.21875 332.820312 969.578125 335.109375 963.546875 339.691406 C 956.675781 344.929688 953.238281 351.613281 953.238281 359.75 C 953.238281 368.023438 956.625 374.730469 963.40625 379.875 C 969.390625 384.410156 976.847656 386.675781 985.777344 386.675781 C 995.546875 386.675781 1003.386719 384.136719 1009.300781 379.050781 C 1015.214844 373.96875 1018.171875 367.300781 1018.171875 359.042969 Z M 1100.566406 334.433594 L 1043.625 334.433594 L 1043.625 342.007812 L 1067.890625 342.007812 L 1067.890625 385.203125 L 1076.304688 385.203125 L 1076.304688 342.007812 L 1100.566406 342.007812 Z M 1153.019531 365.429688 C 1157.039062 364.773438 1160.195312 363.230469 1162.488281 360.800781 C 1164.964844 358.183594 1166.203125 354.722656 1166.203125 350.421875 C 1166.203125 345.511719 1164.683594 341.621094 1161.644531 338.746094 C 1158.605469 335.871094 1154.421875 334.433594 1149.09375 334.433594 L 1109.054688 334.433594 L 1109.054688 385.203125 L 1117.46875 385.203125 L 1117.46875 365.847656 L 1143.097656 365.847656 L 1156.835938 385.203125 L 1166.625 385.203125 Z M 1117.46875 358.273438 L 1117.46875 342.007812 L 1147.058594 342.007812 C 1154.074219 342.007812 1157.578125 344.8125 1157.578125 350.421875 C 1157.578125 355.660156 1154.328125 358.273438 1147.832031 358.273438 Z M 1208.347656 334.433594 L 1197.761719 334.433594 L 1170.902344 385.203125 L 1180.105469 385.203125 L 1185.957031 373.84375 L 1220.152344 373.84375 L 1226.003906 385.203125 L 1235.207031 385.203125 Z M 1190.042969 366.269531 L 1203.132812 341.671875 L 1216.066406 366.269531 Z M 1273.355469 332.820312 C 1264.519531 332.820312 1257.109375 335.089844 1251.125 339.621094 C 1244.25 344.8125 1240.816406 351.496094 1240.816406 359.679688 C 1240.816406 368 1244.203125 374.730469 1250.984375 379.875 C 1256.921875 384.363281 1264.378906 386.605469 1273.355469 386.605469 C 1279.757812 386.605469 1285.261719 385.660156 1289.867188 383.765625 C 1294.472656 381.871094 1298.597656 378.800781 1302.246094 374.542969 L 1295.023438 370.546875 C 1289.878906 376.109375 1282.820312 378.890625 1273.84375 378.890625 C 1266.410156 378.890625 1260.507812 377.128906 1256.140625 373.597656 C 1251.765625 370.066406 1249.582031 365.429688 1249.582031 359.679688 C 1249.582031 354.117188 1251.789062 349.535156 1256.207031 345.933594 C 1260.625 342.335938 1266.34375 340.535156 1273.355469 340.535156 C 1282.609375 340.535156 1289.808594 343.269531 1294.953125 348.738281 L 1302.597656 346.003906 C 1295.816406 337.214844 1286.070312 332.820312 1273.355469 332.820312 M 1345.4375 353.640625 L 1371.402344 334.433594 L 1359.253906 334.433594 L 1323.703125 360.730469 L 1323.703125 334.433594 L 1315.289062 334.433594 L 1315.289062 385.203125 L 1323.703125 385.203125 L 1323.703125 369.800781 L 1339.070312 358.523438 L 1363.375 385.203125 L 1374.191406 385.203125 Z M 1430.921875 340.675781 C 1423.535156 335.671875 1414.375 333.171875 1403.433594 333.171875 C 1395.300781 333.171875 1389 334.550781 1384.535156 337.308594 C 1380.070312 340.066406 1377.839844 343.832031 1377.839844 348.597656 C 1377.839844 353.226562 1379.804688 356.523438 1383.730469 358.484375 C 1387.097656 360.167969 1392.960938 361.292969 1401.332031 361.851562 C 1410.773438 362.460938 1416.570312 363.042969 1418.722656 363.605469 C 1422.835938 364.679688 1424.894531 366.832031 1424.894531 370.054688 C 1424.894531 372.816406 1423.324219 374.988281 1420.195312 376.578125 C 1416.921875 378.214844 1412.316406 379.03125 1406.378906 379.03125 C 1397.214844 379.03125 1388.660156 376.601562 1380.714844 371.738281 L 1376.085938 377.839844 C 1383.285156 383.542969 1393.359375 386.394531 1406.308594 386.394531 C 1415.238281 386.394531 1422.089844 384.921875 1426.855469 381.976562 C 1431.625 379.03125 1434.007812 374.871094 1434.007812 369.496094 C 1434.007812 365.289062 1432.488281 362.039062 1429.449219 359.75 C 1426.410156 357.457031 1421.714844 355.890625 1415.355469 355.050781 C 1413.113281 354.769531 1408.484375 354.394531 1401.472656 353.929688 C 1396.703125 353.648438 1393.265625 353.132812 1391.164062 352.386719 C 1388.21875 351.355469 1386.746094 349.71875 1386.746094 347.476562 C 1386.746094 345.328125 1388.121094 343.644531 1390.882812 342.425781 C 1393.640625 341.210938 1397.613281 340.605469 1402.804688 340.605469 C 1410.609375 340.605469 1418.277344 342.519531 1425.804688 346.355469 Z M 1430.921875 340.675781 "/>
<path fill-rule="nonzero" fill="rgb(91.764832%, 35.68573%, 4.31366%)" fill-opacity="1" d="M 1145.949219 191.753906 C 1152.878906 159.140625 1140.351562 138.339844 1107.738281 138.339844 C 1075.125 138.339844 1048.375 154.261719 1036.3125 211.015625 C 1024.519531 266.480469 1038.324219 283.6875 1073.761719 283.6875 C 1111.253906 283.6875 1130.71875 263.402344 1138.414062 227.191406 L 1104.519531 227.191406 C 1099.769531 249.535156 1092.246094 259.546875 1080.433594 259.546875 C 1064.515625 259.546875 1064.433594 245.425781 1071.695312 211.269531 C 1078.460938 179.429688 1084.5625 164.019531 1102.023438 164.019531 C 1115.378906 164.019531 1114.886719 178.402344 1112.050781 191.753906 Z M 1148.015625 211.015625 C 1137.808594 259.035156 1144.21875 284.457031 1187.007812 283.6875 C 1227.582031 283.6875 1246.851562 258.265625 1256.898438 211.015625 C 1267.105469 162.992188 1260.695312 137.570312 1217.902344 138.339844 C 1177.332031 138.339844 1158.058594 163.761719 1148.015625 211.015625 M 1183.453125 211.015625 C 1189.457031 182.765625 1195.308594 162.480469 1212.773438 162.480469 C 1227.152344 162.480469 1228.773438 176.601562 1221.460938 211.015625 C 1214.144531 245.425781 1206.519531 259.546875 1192.140625 259.546875 C 1174.679688 259.546875 1177.449219 239.261719 1183.453125 211.015625 M 1253.511719 280.09375 L 1288.949219 280.09375 L 1308.273438 189.1875 C 1311.65625 173.265625 1320.484375 165.5625 1331.785156 165.5625 C 1341.796875 165.5625 1344.285156 171.980469 1341.828125 183.539062 L 1321.304688 280.09375 L 1356.746094 280.09375 L 1376.066406 189.1875 C 1379.449219 173.265625 1388.277344 165.5625 1399.578125 165.5625 C 1409.59375 165.5625 1412.078125 171.980469 1409.625 183.539062 L 1389.101562 280.09375 L 1424.539062 280.09375 L 1445.878906 179.683594 C 1451.554688 152.976562 1443.625 138.339844 1420.257812 138.339844 C 1403.566406 138.339844 1389.140625 145.789062 1380.636719 160.425781 L 1380.125 160.425781 C 1379.273438 146.300781 1369.15625 138.339844 1352.976562 138.339844 C 1338.082031 138.339844 1325.949219 143.476562 1314.285156 156.058594 L 1313.773438 156.058594 L 1316.773438 141.9375 L 1282.878906 141.9375 Z M 1253.511719 280.09375 "/>
<path fill-rule="nonzero" fill="rgb(100%, 100%, 100%)" fill-opacity="1" d="M 339.777344 216.40625 L 341.46875 208.445312 C 350.472656 166.074219 347.125 138.339844 305.78125 138.339844 C 258.015625 138.339844 243.511719 172.75 235.652344 209.730469 C 228.339844 244.140625 221.988281 283.6875 273.347656 283.6875 C 306.730469 283.6875 325.957031 265.710938 334.066406 233.613281 L 302.222656 233.613281 C 296.566406 250.5625 289.777344 259.546875 277.964844 259.546875 C 264.867188 259.546875 263.886719 243.625 267.324219 227.449219 L 269.671875 216.40625 Z M 274.148438 195.351562 L 275.292969 189.957031 C 278.023438 177.117188 285.242188 162.480469 299.367188 162.480469 C 314.003906 162.480469 314.058594 174.292969 310.355469 195.351562 Z M 340.722656 234.894531 L 339.6875 239.773438 C 334.066406 266.226562 341.394531 283.6875 381.199219 283.6875 C 410.988281 283.6875 435.617188 269.308594 441.785156 240.289062 C 446.203125 219.488281 440.386719 208.191406 419.628906 200.742188 L 399.84375 193.550781 C 388.851562 189.699219 386.457031 184.050781 387.875 177.375 C 389.949219 167.617188 398.746094 162.480469 407.734375 162.480469 C 419.289062 162.480469 421.921875 169.414062 418.976562 183.28125 L 450.820312 183.28125 L 452.019531 177.628906 C 457.3125 152.722656 445.21875 138.339844 413.121094 138.339844 C 376.65625 138.339844 358.289062 157.085938 353.433594 179.941406 C 349.285156 199.457031 356.734375 211.527344 374.777344 218.460938 L 397.773438 227.449219 C 404.164062 230.015625 409.195312 234.125 407.285156 243.113281 C 404.9375 254.15625 396.601562 259.546875 385.816406 259.546875 C 373.746094 259.546875 369.019531 251.585938 371.585938 239.519531 L 372.566406 234.894531 Z M 443.332031 280.089844 L 478.769531 280.089844 L 498.09375 189.1875 C 501.476562 173.265625 510.304688 165.5625 521.605469 165.5625 C 531.621094 165.5625 534.105469 171.980469 531.652344 183.535156 L 511.128906 280.089844 L 546.566406 280.089844 L 565.886719 189.1875 C 569.273438 173.265625 578.097656 165.5625 589.398438 165.5625 C 599.414062 165.5625 601.902344 171.980469 599.445312 183.535156 L 578.921875 280.089844 L 614.359375 280.089844 L 635.703125 179.683594 C 641.378906 152.980469 633.449219 138.339844 610.078125 138.339844 C 593.386719 138.339844 578.964844 145.789062 570.460938 160.425781 L 569.945312 160.425781 C 569.097656 146.300781 558.976562 138.339844 542.796875 138.339844 C 527.90625 138.339844 515.769531 143.476562 504.109375 156.058594 L 503.59375 156.058594 L 506.597656 141.9375 L 472.699219 141.9375 Z M 682.222656 184.308594 L 683.042969 180.457031 C 685.335938 169.667969 692.515625 162.480469 703.300781 162.480469 C 715.113281 162.480469 718.371094 168.898438 716.132812 179.429688 C 714.167969 188.671875 709.699219 192.78125 698.570312 195.605469 L 677.394531 201 C 651.578125 207.675781 638.8125 218.203125 633.300781 244.140625 C 629.371094 262.628906 633.625 283.6875 658.277344 283.6875 C 675.226562 283.6875 686.003906 280.089844 697.277344 265.710938 L 697.792969 265.710938 C 697.835938 270.332031 697.71875 275.726562 699.101562 280.089844 L 732.996094 280.089844 C 731.09375 272.132812 731.578125 266.226562 734.308594 253.386719 L 749.753906 180.710938 C 755.050781 155.800781 750.800781 138.339844 708.6875 138.339844 C 681.980469 138.339844 657.859375 149.125 651.089844 180.96875 L 650.382812 184.308594 Z M 703.632812 238.234375 C 700.410156 253.386719 686.773438 259.546875 677.273438 259.546875 C 667.773438 259.546875 665.777344 250.816406 668.015625 240.289062 C 670.632812 227.960938 677.757812 221.027344 692.792969 217.949219 C 697.378906 216.921875 703.773438 214.609375 709.417969 211.015625 Z M 865.273438 191.753906 C 872.207031 159.140625 859.679688 138.339844 827.066406 138.339844 C 794.453125 138.339844 767.699219 154.261719 755.636719 211.015625 C 743.847656 266.480469 757.652344 283.6875 793.089844 283.6875 C 830.582031 283.6875 850.046875 263.402344 857.742188 227.191406 L 823.84375 227.191406 C 819.097656 249.535156 811.574219 259.546875 799.761719 259.546875 C 783.839844 259.546875 783.761719 245.425781 791.019531 211.269531 C 797.789062 179.429688 803.890625 164.019531 821.351562 164.019531 C 834.703125 164.019531 834.214844 178.402344 831.378906 191.753906 Z M 867.34375 211.015625 C 857.136719 259.035156 863.546875 284.457031 906.335938 283.6875 C 946.910156 283.6875 966.179688 258.265625 976.222656 211.015625 C 986.429688 162.992188 980.023438 137.570312 937.230469 138.339844 C 896.65625 138.339844 877.386719 163.765625 867.34375 211.015625 M 902.78125 211.015625 C 908.785156 182.765625 914.636719 162.480469 932.101562 162.480469 C 946.480469 162.480469 948.101562 176.605469 940.785156 211.015625 C 933.472656 245.425781 925.847656 259.546875 911.46875 259.546875 C 894.003906 259.546875 896.777344 239.261719 902.78125 211.015625 "/>
<path fill-rule="nonzero" fill="rgb(91.764832%, 35.68573%, 4.31366%)" fill-opacity="1" d="M 975.617188 266.8125 C 975.617188 257.484375 983.179688 249.921875 992.511719 249.921875 C 1001.839844 249.921875 1009.402344 257.484375 1009.402344 266.8125 C 1009.402344 276.140625 1001.839844 283.703125 992.511719 283.703125 C 983.179688 283.703125 975.617188 276.140625 975.617188 266.8125 "/>
<path fill-rule="nonzero" fill="rgb(100%, 100%, 100%)" fill-opacity="1" d="M 174.613281 238.996094 L 174.097656 238.996094 L 175.339844 140.128906 L 138.359375 140.128906 L 144.6875 278.285156 L 185.777344 278.285156 L 249.808594 140.128906 L 214.371094 140.128906 Z M 174.613281 238.996094 "/>
</svg>
