<?xml version="1.0" encoding="UTF-8"?>
<svg xmlns="http://www.w3.org/2000/svg" xmlns:xlink="http://www.w3.org/1999/xlink" width="3695.76" height="1417.44" viewBox="0 0 3695.76 1417.44">
<path fill-rule="nonzero" fill="rgb(92.939758%, 10.978699%, 14.118958%)" fill-opacity="1" d="M 3540.957031 1356.128906 L 157.035156 1356.128906 C 99.539062 1356.128906 52.929688 1309.519531 52.929688 1252.023438 L 52.929688 151.253906 C 52.929688 93.757812 99.539062 47.148438 157.035156 47.148438 L 3540.957031 47.148438 C 3598.453125 47.148438 3645.0625 93.757812 3645.0625 151.253906 L 3645.0625 1252.023438 C 3645.0625 1309.519531 3598.453125 1356.128906 3540.957031 1356.128906 "/>
<path fill-rule="nonzero" fill="rgb(100%, 100%, 100%)" fill-opacity="1" d="M 282.109375 1108.726562 C 252.882812 1114.039062 235.375 1090.226562 257.742188 1079.488281 C 281.734375 1067.972656 353.878906 1077.71875 353.328125 1077.613281 C 335.472656 1094.285156 306.648438 1104.269531 282.109375 1108.726562 "/>
<path fill-rule="nonzero" fill="rgb(100%, 100%, 100%)" fill-opacity="1" d="M 2009.84375 593.824219 C 2008.71875 601.320312 2002.816406 638.101562 1989.320312 663.96875 C 1975.824219 689.832031 1968.75 705.449219 1948.132812 724.566406 C 1927.515625 743.6875 1912.523438 752.308594 1897.152344 760.179688 C 1886.554688 765.605469 1863.792969 773.109375 1834.554688 779.109375 L 1823.683594 780.984375 C 1823.683594 780.984375 1815.867188 783.101562 1818.105469 776.84375 C 1819.605469 772.65625 1821.34375 767.378906 1822.988281 762.652344 C 1824.679688 757.777344 1826.375 752.902344 1828.285156 748.09375 C 1832.476562 737.535156 1836.667969 726.980469 1840.847656 716.417969 C 1841 716.035156 1841.148438 715.65625 1841.300781 715.273438 C 1848.421875 697.28125 1860.417969 672.839844 1873.164062 649.972656 C 1885.910156 627.105469 1903.527344 601.617188 1914.023438 589.621094 C 1924.519531 577.625 1930.515625 569.003906 1947.757812 555.886719 C 1965.003906 542.765625 1981.261719 538.136719 1990.117188 540.890625 C 1999.03125 543.664062 2003.398438 548.359375 2007.03125 557.976562 C 2011.183594 568.960938 2010.96875 586.324219 2009.84375 593.824219 M 2244.640625 580.625 C 2238.332031 533.492188 2206.59375 497.96875 2161.050781 476.042969 C 2115.503906 454.113281 2054.21875 445.679688 2003.425781 447.367188 C 1952.164062 449.066406 1891.179688 460.722656 1801.003906 507.246094 C 1711.078125 553.648438 1678.007812 592.171875 1659.3125 610.988281 C 1647.738281 624.042969 1636.457031 637.273438 1627.917969 647.941406 C 1619.5 658.457031 1583.097656 711.136719 1567.941406 748.746094 C 1553.273438 785.136719 1545.261719 822.246094 1541.609375 843.894531 C 1537.953125 865.542969 1536.125 895.765625 1535.5625 911.226562 C 1535 926.691406 1537.53125 957.476562 1539.78125 968.71875 C 1542.03125 979.964844 1553.042969 1019.761719 1564.847656 1043.941406 C 1576.65625 1068.121094 1600.945312 1099.984375 1606.691406 1105.496094 C 1613.578125 1112.101562 1628.949219 1133.90625 1670.558594 1153.585938 C 1712.164062 1173.265625 1743.371094 1179.449219 1789.480469 1181.980469 C 1835.585938 1184.511719 1883.941406 1175.792969 1923.582031 1164.832031 C 1963.222656 1153.867188 2001.738281 1134.1875 2010.453125 1128.5625 C 2019.167969 1122.941406 2047.28125 1106.351562 2077.644531 1080.488281 C 2108.007812 1054.625 2121.785156 1035.507812 2134.996094 1019.480469 C 2148.210938 1003.457031 2160.300781 976.46875 2161.144531 964.378906 C 2161.988281 952.289062 2163.953125 939.921875 2155.238281 925.863281 C 2146.523438 911.804688 2131.625 907.027344 2120.378906 907.308594 C 2109.132812 907.589844 2101.261719 912.648438 2087.203125 920.800781 C 2073.148438 928.957031 2061.339844 943.855469 2054.59375 950.601562 C 2047.84375 957.351562 2032.101562 973.9375 2027.320312 977.875 C 2022.542969 981.808594 2010.171875 991.929688 1993.023438 1002.613281 C 1975.871094 1013.296875 1944.949219 1025.105469 1914.023438 1029.039062 C 1883.097656 1032.976562 1868.757812 1029.039062 1853.015625 1023.699219 C 1837.273438 1018.355469 1825.183594 1004.582031 1815.34375 988.558594 C 1805.503906 972.53125 1800.160156 937.671875 1800.160156 937.671875 C 1797.351562 917.429688 1799.316406 887.628906 1799.316406 887.628906 C 1851.328125 885.097656 1912.335938 874.976562 1950.289062 867.949219 C 1987.703125 861.019531 2059.371094 840.679688 2068.648438 836.742188 C 2077.925781 832.804688 2130.78125 816.21875 2173.511719 781.359375 C 2216.246094 746.496094 2230.503906 701.628906 2232.550781 691.957031 C 2234.382812 683.320312 2251.386719 631.042969 2244.640625 580.625 "/>
<path fill-rule="nonzero" fill="rgb(100%, 100%, 100%)" fill-opacity="1" d="M 3269.90625 593.824219 C 3268.78125 601.320312 3262.878906 638.101562 3249.382812 663.96875 C 3235.886719 689.832031 3228.8125 705.449219 3208.195312 724.566406 C 3187.578125 743.6875 3172.585938 752.308594 3157.214844 760.179688 C 3146.617188 765.605469 3123.855469 773.109375 3094.617188 779.109375 L 3083.746094 780.984375 C 3083.746094 780.984375 3075.929688 783.101562 3078.167969 776.84375 C 3079.667969 772.65625 3081.40625 767.378906 3083.046875 762.652344 C 3084.742188 757.777344 3086.4375 752.902344 3088.34375 748.09375 C 3092.539062 737.535156 3096.730469 726.980469 3100.910156 716.417969 C 3101.0625 716.035156 3101.210938 715.65625 3101.363281 715.273438 C 3108.484375 697.28125 3120.480469 672.839844 3133.226562 649.972656 C 3145.972656 627.105469 3163.589844 601.617188 3174.085938 589.621094 C 3184.582031 577.625 3190.578125 569.003906 3207.820312 555.886719 C 3225.066406 542.765625 3241.324219 538.136719 3250.179688 540.890625 C 3259.09375 543.664062 3263.460938 548.359375 3267.09375 557.976562 C 3271.246094 568.960938 3271.03125 586.324219 3269.90625 593.824219 M 3504.703125 580.625 C 3498.394531 533.492188 3466.65625 497.96875 3421.113281 476.042969 C 3375.566406 454.113281 3314.277344 445.679688 3263.484375 447.367188 C 3212.222656 449.066406 3151.242188 460.722656 3061.066406 507.246094 C 2971.140625 553.648438 2938.070312 592.171875 2919.375 610.988281 C 2907.800781 624.042969 2896.519531 637.273438 2887.980469 647.941406 C 2879.5625 658.457031 2843.160156 711.136719 2828.003906 748.746094 C 2813.335938 785.136719 2805.324219 822.246094 2801.667969 843.894531 C 2798.015625 865.542969 2796.1875 895.765625 2795.625 911.226562 C 2795.0625 926.691406 2797.59375 957.476562 2799.84375 968.71875 C 2802.089844 979.964844 2813.101562 1019.761719 2824.910156 1043.941406 C 2836.71875 1068.121094 2861.007812 1099.984375 2866.753906 1105.496094 C 2873.640625 1112.101562 2889.011719 1133.90625 2930.617188 1153.585938 C 2972.226562 1173.265625 3003.433594 1179.449219 3049.539062 1181.980469 C 3095.648438 1184.511719 3144.003906 1175.792969 3183.644531 1164.832031 C 3223.285156 1153.867188 3261.800781 1134.1875 3270.515625 1128.5625 C 3279.230469 1122.941406 3307.34375 1106.351562 3337.707031 1080.488281 C 3368.070312 1054.625 3381.84375 1035.507812 3395.058594 1019.480469 C 3408.273438 1003.457031 3420.363281 976.46875 3421.203125 964.378906 C 3422.046875 952.289062 3424.015625 939.921875 3415.300781 925.863281 C 3406.585938 911.804688 3391.6875 907.027344 3380.441406 907.308594 C 3369.195312 907.589844 3361.324219 912.648438 3347.265625 920.800781 C 3333.207031 928.957031 3321.402344 943.855469 3314.652344 950.601562 C 3307.90625 957.351562 3292.164062 973.9375 3287.382812 977.875 C 3282.605469 981.808594 3270.234375 991.929688 3253.085938 1002.613281 C 3235.933594 1013.296875 3205.007812 1025.105469 3174.085938 1029.039062 C 3143.160156 1032.976562 3128.820312 1029.039062 3113.078125 1023.699219 C 3097.332031 1018.355469 3085.246094 1004.582031 3075.40625 988.558594 C 3065.566406 972.53125 3060.222656 937.671875 3060.222656 937.671875 C 3057.414062 917.429688 3059.378906 887.628906 3059.378906 887.628906 C 3111.390625 885.097656 3172.398438 874.976562 3210.351562 867.949219 C 3247.765625 861.019531 3319.433594 840.679688 3328.710938 836.742188 C 3337.988281 832.804688 3390.84375 816.21875 3433.574219 781.359375 C 3476.308594 746.496094 3490.566406 701.628906 3492.613281 691.957031 C 3494.445312 683.320312 3511.449219 631.042969 3504.703125 580.625 "/>
<path fill-rule="nonzero" fill="rgb(100%, 100%, 100%)" fill-opacity="1" d="M 2436.441406 488.160156 L 2475.050781 335.972656 L 2500.164062 238.136719 C 2500.164062 238.136719 2504.476562 223.515625 2510.472656 215.269531 C 2516.472656 207.023438 2527.34375 189.96875 2550.769531 189.96875 L 2705.210938 189.96875 C 2705.210938 189.96875 2719.296875 189.6875 2730.511719 196.714844 C 2738.199219 201.53125 2743.847656 206.273438 2747.410156 214.144531 C 2750.972656 222.019531 2753.941406 229.890625 2750.753906 243.195312 C 2747.566406 256.503906 2732.949219 310.105469 2732.949219 310.105469 L 2702.023438 426.875 L 2685.152344 489.472656 L 2767.808594 489.847656 C 2767.808594 489.847656 2779.367188 489.097656 2788.363281 498.097656 C 2795.113281 504.84375 2798.671875 512.339844 2799.234375 526.398438 C 2799.796875 540.453125 2799.859375 549.261719 2799.859375 549.261719 C 2799.859375 549.261719 2800.234375 565.191406 2789.738281 583.9375 C 2779.242188 602.679688 2766.496094 605.300781 2764.621094 605.863281 C 2762.75 606.425781 2744.941406 607.175781 2740.070312 606.988281 C 2735.195312 606.800781 2650.667969 606.988281 2650.667969 606.988281 L 2627.425781 686.832031 L 2594.066406 803.222656 L 2565.765625 905.746094 L 2541.023438 992.710938 C 2541.023438 992.710938 2537.273438 1002.457031 2538.210938 1006.207031 C 2539.148438 1009.953125 2542.335938 1010.890625 2548.144531 1006.019531 C 2553.957031 1001.144531 2577.007812 974.90625 2577.007812 974.90625 L 2610.746094 928.050781 C 2610.746094 928.050781 2620.867188 911.742188 2625.742188 904.996094 C 2630.613281 898.25 2636.046875 891.3125 2645.792969 885.503906 C 2655.539062 879.695312 2670.347656 874.445312 2681.40625 880.070312 C 2692.464844 885.691406 2702.773438 892.4375 2708.957031 905.371094 C 2715.140625 918.304688 2717.578125 935.359375 2708.207031 958.039062 C 2698.835938 980.714844 2683.84375 1007.332031 2665.101562 1030.195312 C 2646.355469 1053.0625 2626.488281 1072.742188 2623.304688 1075.929688 C 2620.117188 1079.113281 2588.066406 1108.351562 2570.449219 1120.160156 C 2552.832031 1131.96875 2524.34375 1146.777344 2514.597656 1150.710938 C 2504.851562 1154.648438 2483.484375 1162.144531 2478.238281 1163.832031 C 2472.988281 1165.519531 2449.375 1170.390625 2442.25 1171.328125 C 2435.128906 1172.265625 2408.515625 1171.890625 2396.707031 1169.453125 C 2384.898438 1167.015625 2369.90625 1161.582031 2365.21875 1159.519531 C 2360.53125 1157.457031 2342.351562 1144.527344 2336.730469 1139.652344 C 2331.105469 1134.78125 2317.238281 1119.035156 2310.863281 1101.980469 C 2304.492188 1084.925781 2298.683594 1069.929688 2297.183594 1054 C 2295.683594 1038.070312 2293.621094 1021.386719 2297.371094 995.523438 C 2301.117188 969.660156 2305.429688 944.917969 2308.992188 930.859375 C 2312.550781 916.804688 2326.046875 868.636719 2326.046875 868.636719 L 2345.164062 801.160156 L 2377.964844 687.582031 L 2400.828125 606.425781 L 2342.351562 606.800781 C 2342.351562 606.800781 2328.296875 608.488281 2319.113281 597.992188 C 2309.929688 587.496094 2304.304688 569.878906 2306.554688 555.070312 C 2308.800781 540.269531 2312.925781 520.785156 2312.925781 520.773438 C 2316.574219 503.535156 2332.019531 490.570312 2349.289062 488.160156 C 2357.347656 487.035156 2436.441406 488.160156 2436.441406 488.160156 "/>
<path fill-rule="nonzero" fill="rgb(100%, 100%, 100%)" fill-opacity="1" d="M 1096.800781 722.722656 C 1088.433594 717.792969 1080.3125 712.519531 1074.351562 704.699219 C 1068.289062 696.742188 1065.105469 687.074219 1064.984375 677.085938 C 1064.601562 645.414062 1077.523438 621.136719 1085.976562 603.617188 C 1093.660156 587.683594 1119.890625 543.792969 1136.207031 524.523438 C 1156.195312 500.90625 1186.058594 472.417969 1201.429688 459.671875 C 1217.476562 446.367188 1237.1875 433.128906 1243.007812 411.878906 C 1248.628906 391.335938 1243.105469 370.238281 1228.996094 354.445312 C 1213.660156 337.28125 1189.304688 337.488281 1168.816406 344.59375 C 1150.449219 350.964844 1125.28125 365.566406 1104.96875 381.703125 C 1075.695312 404.964844 1058.558594 420.914062 1030.75 452.550781 C 997.136719 490.785156 975.644531 535.765625 975.644531 535.765625 C 975.644531 535.765625 931.535156 616.359375 945.78125 701.078125 C 959.710938 783.910156 995.261719 807.535156 1001.257812 813.90625 C 1007.257812 820.28125 1057.238281 858.140625 1110.339844 858.140625 C 1157.960938 858.140625 1191.558594 853.640625 1249.285156 833.023438 C 1307.011719 812.40625 1393.230469 765.550781 1438.210938 730.691406 C 1483.195312 695.828125 1544.042969 638.476562 1586.777344 562.757812 C 1629.511719 487.035156 1635.507812 427.4375 1638.882812 394.074219 C 1642.253906 360.710938 1641.128906 318.355469 1630.632812 280.121094 C 1620.140625 241.882812 1611.890625 223.890625 1579.28125 186.40625 C 1546.667969 148.921875 1496.3125 121.558594 1454.332031 109.9375 C 1412.347656 98.316406 1368.488281 92.320312 1289.769531 101.691406 C 1211.050781 111.0625 1163.445312 128.304688 1106.09375 150.421875 C 1048.742188 172.535156 982.769531 216.394531 944.15625 245.632812 C 905.546875 274.871094 866.9375 312.355469 818.957031 366.710938 C 770.976562 421.0625 743.613281 471.292969 733.117188 492.660156 C 722.621094 514.027344 688.507812 585.996094 688.507812 585.996094 L 642.027344 692.832031 L 605.292969 774.921875 L 562.183594 860.390625 L 530.324219 912.117188 C 530.324219 912.117188 508.207031 947.730469 466.972656 969.84375 C 425.738281 991.960938 358.859375 984.464844 358.859375 984.464844 C 282.390625 979.21875 223.515625 979.058594 166.339844 1012.203125 C 139.042969 1028.03125 122.71875 1053.628906 119.386719 1082.496094 C 115.53125 1115.886719 122.863281 1151.179688 146.597656 1175.917969 C 166.558594 1196.722656 186.289062 1203.816406 210.136719 1207.6875 C 260.367188 1215.839844 317.8125 1199.535156 342.550781 1188.289062 C 370.175781 1175.734375 420.242188 1152.585938 431.113281 1148.085938 C 443.1875 1143.089844 455.3125 1146.832031 467.175781 1150.308594 C 477.613281 1153.367188 488.230469 1156.320312 498.304688 1160.457031 C 514.046875 1166.921875 602.605469 1201.878906 625.097656 1209.375 C 647.589844 1216.871094 733.054688 1244.796875 769.039062 1254.917969 C 805.023438 1265.039062 826.671875 1270.945312 868 1277.128906 C 918.074219 1284.625 980.519531 1280.222656 1012.007812 1277.972656 C 1043.492188 1275.722656 1094.167969 1269.230469 1131.957031 1258.855469 C 1170.191406 1248.359375 1179.933594 1247.023438 1222.671875 1229.242188 C 1274.027344 1207.875 1333.4375 1173.34375 1343.75 1166.640625 C 1358.742188 1156.894531 1380.398438 1142.550781 1408.972656 1116.785156 C 1431.839844 1096.171875 1452.957031 1072.929688 1463.074219 1053.8125 C 1483.785156 1014.695312 1476.945312 972.84375 1472.074219 961.222656 C 1467.199219 949.605469 1450.207031 937.984375 1439.335938 940.609375 C 1428.464844 943.230469 1413.472656 952.601562 1411.222656 954.476562 C 1411.222656 954.476562 1393.980469 967.96875 1383.484375 975.84375 C 1372.988281 983.714844 1360.242188 993.835938 1342.625 1006.207031 C 1325.007812 1018.574219 1313.011719 1024.949219 1313.011719 1024.949219 C 1296.519531 1037.316406 1238.039062 1060.558594 1218.546875 1066.558594 C 1199.054688 1072.554688 1172.941406 1081.925781 1109.839844 1087.921875 C 1059.871094 1092.671875 1012.128906 1087.171875 984.765625 1083.800781 C 957.402344 1080.425781 888.804688 1065.808594 888.804688 1065.808594 L 767.726562 1037.691406 L 661.269531 1010.703125 C 697.628906 990.085938 757.230469 902.371094 769.976562 878.757812 C 781.792969 856.863281 814.585938 799.664062 829.203125 765.925781 C 839.9375 741.15625 853.9375 709.460938 879.433594 654.21875 C 904.171875 600.617188 934.160156 540.265625 970.894531 484.414062 C 1007.632812 428.5625 1080.886719 358.328125 1090.726562 349.84375 C 1129.832031 316.105469 1141.078125 303.734375 1209.925781 264.375 C 1283.691406 222.207031 1387.332031 216.441406 1444.710938 247.507812 C 1454.855469 253 1462.847656 258.992188 1469.085938 265.300781 C 1512.371094 312.542969 1468.878906 436.019531 1366.144531 561.671875 C 1267.46875 682.363281 1152.621094 753.902344 1103.332031 726.34375 C 1103.332031 726.34375 1100.125 724.683594 1096.800781 722.722656 "/>
</svg>
