<?xml version="1.0" encoding="UTF-8"?>
<svg xmlns="http://www.w3.org/2000/svg" xmlns:xlink="http://www.w3.org/1999/xlink" width="629.20" height="146.08" viewBox="117.40 211.72 629.20 146.08">
<path fill-rule="nonzero" fill="rgb(0%, 0%, 0%)" fill-opacity="1" d="M 176.070312 279.488281 L 152.1875 255.082031 C 152.1875 255.082031 145.945312 245.851562 149.691406 233.023438 C 149.691406 233.023438 152.34375 217.84375 168.578125 216.75 L 241.464844 216.761719 L 230.226562 247.726562 L 193.238281 247.726562 L 219.203125 270.246094 C 221.289062 272.046875 222.339844 274.777344 221.96875 277.503906 C 221.351562 282.085938 218.390625 289.859375 212.589844 301.394531 C 212.589844 301.394531 209.3125 307.183594 200.261719 308.4375 L 125.34375 308.4375 C 125.34375 308.4375 130.492188 281.210938 143.917969 279.644531 Z M 176.070312 279.488281 "/>
<path fill-rule="nonzero" fill="rgb(0%, 0%, 0%)" fill-opacity="1" d="M 369.296875 279.488281 L 345.417969 255.082031 C 345.417969 255.082031 339.171875 245.851562 342.917969 233.023438 C 342.917969 233.023438 345.570312 217.84375 361.804688 216.75 L 434.691406 216.761719 L 423.453125 247.726562 L 386.464844 247.726562 L 412.433594 270.246094 C 414.515625 272.046875 415.566406 274.777344 415.195312 277.503906 C 414.578125 282.085938 411.617188 289.859375 405.816406 301.394531 C 405.816406 301.394531 402.539062 307.183594 393.488281 308.4375 L 318.570312 308.4375 C 318.570312 308.4375 323.71875 281.210938 337.144531 279.644531 Z M 369.296875 279.488281 "/>
<path fill-rule="nonzero" fill="rgb(0%, 0%, 0%)" fill-opacity="1" d="M 562.109375 279.488281 L 538.230469 255.082031 C 538.230469 255.082031 531.988281 245.851562 535.734375 233.023438 C 535.734375 233.023438 538.386719 217.84375 554.617188 216.75 L 627.507812 216.761719 L 616.269531 247.726562 L 579.277344 247.726562 L 605.246094 270.246094 C 607.328125 272.046875 608.382812 274.777344 608.011719 277.503906 C 607.390625 282.085938 604.433594 289.859375 598.632812 301.394531 C 598.632812 301.394531 595.351562 307.183594 586.300781 308.4375 L 511.382812 308.4375 C 511.382812 308.4375 516.535156 281.210938 529.957031 279.644531 Z M 562.109375 279.488281 "/>
<path fill-rule="nonzero" fill="rgb(0%, 0%, 0%)" fill-opacity="1" d="M 291.410156 259.378906 L 276.769531 259.378906 C 276.320312 259.378906 276.007812 258.945312 276.144531 258.519531 L 280.71875 244.558594 C 280.804688 244.285156 281.054688 244.105469 281.339844 244.105469 L 292.265625 244.105469 C 295.324219 244.105469 298.203125 245.8125 299.445312 248.609375 C 300.511719 251.007812 300.398438 254.179688 296.257812 257.65625 C 294.90625 258.792969 293.175781 259.378906 291.410156 259.378906 M 335.988281 235.960938 C 331.542969 223.996094 318.890625 218.824219 314.671875 217.398438 C 313.828125 217.117188 312.953125 216.96875 312.066406 216.96875 L 254.300781 216.738281 C 254.007812 216.738281 253.753906 216.925781 253.671875 217.203125 L 222.910156 307.371094 C 222.78125 307.789062 223.097656 308.214844 223.539062 308.214844 L 244.980469 308.214844 C 253.71875 308.214844 261.480469 302.632812 264.261719 294.351562 L 268.539062 281.621094 C 268.628906 281.351562 268.878906 281.171875 269.160156 281.171875 L 298.335938 281.171875 C 309.789062 281.171875 320.855469 276.605469 328.664062 268.222656 C 343.355469 252.445312 335.988281 235.960938 335.988281 235.960938 "/>
<path fill-rule="nonzero" fill="rgb(0%, 0%, 0%)" fill-opacity="1" d="M 482.984375 259.378906 L 468.34375 259.378906 C 467.898438 259.378906 467.582031 258.945312 467.722656 258.519531 L 472.292969 244.558594 C 472.378906 244.285156 472.628906 244.105469 472.914062 244.105469 L 483.839844 244.105469 C 486.898438 244.105469 489.78125 245.8125 491.019531 248.609375 C 492.085938 251.007812 491.972656 254.179688 487.832031 257.65625 C 486.480469 258.792969 484.75 259.378906 482.984375 259.378906 M 527.566406 235.960938 C 523.117188 223.996094 510.464844 218.824219 506.246094 217.398438 C 505.40625 217.117188 504.527344 216.96875 503.640625 216.96875 L 445.875 216.738281 C 445.585938 216.738281 445.332031 216.925781 445.246094 217.203125 L 414.484375 307.371094 C 414.359375 307.789062 414.671875 308.214844 415.113281 308.214844 L 436.554688 308.214844 C 445.292969 308.214844 453.054688 302.632812 455.839844 294.351562 L 460.117188 281.621094 C 460.203125 281.351562 460.453125 281.171875 460.738281 281.171875 L 489.914062 281.171875 C 501.363281 281.171875 512.433594 276.605469 520.238281 268.222656 C 534.933594 252.445312 527.566406 235.960938 527.566406 235.960938 "/>
<path fill-rule="nonzero" fill="rgb(0%, 0%, 0%)" fill-opacity="1" d="M 740.59375 216.75 L 704.214844 216.75 L 662.007812 257.796875 L 675.632812 216.75 L 638.886719 216.75 L 609.933594 308.4375 L 623.183594 308.4375 C 637.308594 308.4375 650.882812 302.96875 661.066406 293.183594 Z M 740.59375 216.75 "/>
<path fill-rule="nonzero" fill="rgb(0%, 0%, 0%)" fill-opacity="1" d="M 710.335938 306.460938 L 694.175781 272.320312 C 693.765625 271.464844 692.636719 271.261719 691.960938 271.921875 L 671.25 292.085938 C 670.847656 292.480469 670.722656 293.085938 670.941406 293.605469 L 674.15625 301.324219 C 675.949219 305.628906 680.15625 308.433594 684.820312 308.433594 L 709.085938 308.433594 C 710.097656 308.433594 710.765625 307.378906 710.335938 306.460938 "/>
<path fill-rule="nonzero" fill="rgb(0%, 0%, 0%)" fill-opacity="1" d="M 132.527344 330.640625 C 128.898438 330.71875 127.011719 332.027344 126.855469 334.574219 C 126.777344 336.503906 128.746094 337.890625 132.757812 338.738281 C 139.078125 339.894531 142.089844 342.289062 141.78125 345.914062 C 141.394531 349.921875 138.542969 352.042969 133.21875 352.277344 C 127.511719 352.429688 124.195312 350.117188 123.269531 345.332031 L 125.929688 344.40625 C 126.46875 348.421875 128.863281 350.347656 133.105469 350.191406 C 136.882812 350.117188 138.847656 348.652344 139.003906 345.796875 C 139.390625 343.636719 137.230469 342.09375 132.527344 341.167969 C 126.664062 340.011719 123.886719 337.8125 124.195312 334.574219 C 124.503906 330.640625 127.203125 328.558594 132.292969 328.324219 C 137.308594 328.324219 140.277344 330.449219 141.203125 334.691406 L 138.425781 335.5 C 137.578125 332.261719 135.609375 330.640625 132.527344 330.640625 "/>
<path fill-rule="nonzero" fill="rgb(0%, 0%, 0%)" fill-opacity="1" d="M 155.203125 331.101562 L 148.492188 331.101562 L 148.492188 340.242188 L 155.203125 340.242188 C 158.90625 340.167969 160.792969 338.585938 160.871094 335.5 C 160.714844 332.648438 158.828125 331.179688 155.203125 331.101562 M 155.664062 342.558594 L 148.492188 342.558594 L 148.492188 351.929688 L 145.949219 351.929688 L 145.949219 328.789062 L 155.898438 328.789062 C 160.601562 329.019531 163.1875 331.296875 163.648438 335.613281 C 163.570312 340.167969 160.910156 342.480469 155.664062 342.558594 "/>
<path fill-rule="nonzero" fill="rgb(0%, 0%, 0%)" fill-opacity="1" d="M 170.128906 349.84375 L 184.820312 349.84375 L 184.820312 351.929688 L 167.464844 351.929688 L 167.464844 328.789062 L 184.125 328.789062 L 184.125 330.988281 L 170.128906 330.988281 L 170.128906 338.855469 L 183.316406 338.855469 L 183.316406 341.167969 L 170.128906 341.167969 Z M 170.128906 349.84375 "/>
<path fill-rule="nonzero" fill="rgb(0%, 0%, 0%)" fill-opacity="1" d="M 205.648438 343.945312 L 208.65625 344.640625 C 207.1875 349.65625 203.835938 352.199219 198.589844 352.273438 C 191.953125 351.890625 188.445312 348.074219 188.0625 340.820312 C 188.367188 332.953125 191.953125 328.828125 198.820312 328.441406 C 203.21875 328.597656 206.339844 330.832031 208.191406 335.152344 L 205.300781 335.847656 C 203.910156 332.53125 201.671875 330.832031 198.589844 330.753906 C 193.882812 331.21875 191.300781 334.496094 190.835938 340.589844 C 191.144531 346.53125 193.6875 349.730469 198.472656 350.191406 C 202.253906 350.039062 204.644531 347.957031 205.648438 343.945312 "/>
<path fill-rule="nonzero" fill="rgb(0%, 0%, 0%)" fill-opacity="1" d="M 212.9375 328.789062 L 215.480469 328.789062 L 215.480469 351.929688 L 212.9375 351.929688 Z M 212.9375 328.789062 "/>
<path fill-rule="nonzero" fill="rgb(0%, 0%, 0%)" fill-opacity="1" d="M 224.851562 342.671875 L 233.53125 342.671875 L 229.710938 332.839844 C 229.632812 332.453125 229.480469 331.914062 229.25 331.21875 C 229.019531 331.914062 228.824219 332.453125 228.671875 332.839844 Z M 237.347656 351.929688 L 234.457031 344.871094 L 223.925781 344.871094 L 221.152344 351.929688 L 218.371094 351.929688 L 227.746094 328.789062 L 230.523438 328.789062 L 240.125 351.929688 Z M 237.347656 351.929688 "/>
<path fill-rule="nonzero" fill="rgb(0%, 0%, 0%)" fill-opacity="1" d="M 242.4375 351.929688 L 242.4375 328.789062 L 245.097656 328.789062 L 245.097656 349.847656 L 257.015625 349.847656 L 257.015625 351.929688 Z M 242.4375 351.929688 "/>
<path fill-rule="nonzero" fill="rgb(0%, 0%, 0%)" fill-opacity="1" d="M 371.042969 330.640625 C 367.417969 330.71875 365.527344 332.027344 365.375 334.574219 C 365.296875 336.503906 367.265625 337.890625 371.277344 338.738281 C 377.597656 339.894531 380.609375 342.289062 380.300781 345.914062 C 379.914062 349.921875 377.058594 352.042969 371.738281 352.277344 C 366.027344 352.429688 362.714844 350.117188 361.789062 345.332031 L 364.449219 344.40625 C 364.988281 348.421875 367.378906 350.347656 371.621094 350.191406 C 375.402344 350.117188 377.367188 348.652344 377.523438 345.796875 C 377.910156 343.636719 375.75 342.09375 371.042969 341.167969 C 365.179688 340.011719 362.40625 337.8125 362.714844 334.574219 C 363.019531 330.640625 365.722656 328.558594 370.8125 328.324219 C 375.824219 328.324219 378.796875 330.449219 379.722656 334.691406 L 376.945312 335.5 C 376.09375 332.261719 374.128906 330.640625 371.042969 330.640625 "/>
<path fill-rule="nonzero" fill="rgb(0%, 0%, 0%)" fill-opacity="1" d="M 393.722656 331.101562 L 387.011719 331.101562 L 387.011719 340.242188 L 393.722656 340.242188 C 397.421875 340.167969 399.3125 338.585938 399.390625 335.5 C 399.234375 332.648438 397.347656 331.179688 393.722656 331.101562 M 394.183594 342.558594 L 387.011719 342.558594 L 387.011719 351.929688 L 384.464844 351.929688 L 384.464844 328.789062 L 394.414062 328.789062 C 399.117188 329.019531 401.703125 331.296875 402.167969 335.613281 C 402.089844 340.167969 399.429688 342.480469 394.183594 342.558594 "/>
<path fill-rule="nonzero" fill="rgb(0%, 0%, 0%)" fill-opacity="1" d="M 408.644531 349.84375 L 423.339844 349.84375 L 423.339844 351.929688 L 405.984375 351.929688 L 405.984375 328.789062 L 422.644531 328.789062 L 422.644531 330.988281 L 408.644531 330.988281 L 408.644531 338.855469 L 421.835938 338.855469 L 421.835938 341.167969 L 408.644531 341.167969 Z M 408.644531 349.84375 "/>
<path fill-rule="nonzero" fill="rgb(0%, 0%, 0%)" fill-opacity="1" d="M 430.164062 349.84375 L 444.859375 349.84375 L 444.859375 351.929688 L 427.503906 351.929688 L 427.503906 328.789062 L 444.164062 328.789062 L 444.164062 330.988281 L 430.164062 330.988281 L 430.164062 338.855469 L 443.355469 338.855469 L 443.355469 341.167969 L 430.164062 341.167969 Z M 430.164062 349.84375 "/>
<path fill-rule="nonzero" fill="rgb(0%, 0%, 0%)" fill-opacity="1" d="M 457.007812 331.101562 L 451.570312 331.101562 L 451.570312 349.960938 L 456.890625 349.960938 C 462.753906 349.886719 465.644531 346.722656 465.570312 340.472656 C 465.335938 334.457031 462.484375 331.335938 457.007812 331.101562 M 456.890625 351.929688 L 449.023438 351.929688 L 449.023438 328.789062 L 457.121094 328.789062 C 464.296875 329.019531 468 332.878906 468.230469 340.359375 C 468.382812 348.226562 464.605469 352.082031 456.890625 351.929688 "/>
<path fill-rule="nonzero" fill="rgb(0%, 0%, 0%)" fill-opacity="1" d="M 580.089844 330.640625 C 576.464844 330.71875 574.578125 332.027344 574.421875 334.574219 C 574.34375 336.503906 576.3125 337.890625 580.320312 338.738281 C 586.648438 339.894531 589.65625 342.289062 589.347656 345.914062 C 588.960938 349.921875 586.105469 352.042969 580.785156 352.277344 C 575.074219 352.429688 571.761719 350.117188 570.835938 345.332031 L 573.496094 344.40625 C 574.035156 348.421875 576.425781 350.347656 580.667969 350.191406 C 584.445312 350.117188 586.414062 348.652344 586.570312 345.796875 C 586.957031 343.636719 584.796875 342.09375 580.089844 341.167969 C 574.230469 340.011719 571.449219 337.8125 571.761719 334.574219 C 572.066406 330.640625 574.769531 328.558594 579.859375 328.324219 C 584.871094 328.324219 587.84375 330.449219 588.769531 334.691406 L 585.992188 335.5 C 585.140625 332.261719 583.175781 330.640625 580.089844 330.640625 "/>
<path fill-rule="nonzero" fill="rgb(0%, 0%, 0%)" fill-opacity="1" d="M 608.902344 351.929688 L 600.570312 340.011719 L 595.941406 344.640625 L 595.941406 351.929688 L 593.28125 351.929688 L 593.28125 328.789062 L 595.941406 328.789062 L 595.941406 341.398438 L 608.320312 328.789062 L 612.023438 328.789062 L 602.191406 338.390625 L 612.488281 351.929688 Z M 608.902344 351.929688 "/>
<path fill-rule="nonzero" fill="rgb(0%, 0%, 0%)" fill-opacity="1" d="M 618.96875 342.671875 L 627.644531 342.671875 L 623.824219 332.839844 C 623.746094 332.453125 623.59375 331.914062 623.363281 331.21875 C 623.128906 331.914062 622.9375 332.453125 622.785156 332.839844 Z M 631.460938 351.929688 L 628.570312 344.871094 L 618.039062 344.871094 L 615.265625 351.929688 L 612.488281 351.929688 L 621.859375 328.789062 L 624.636719 328.789062 L 634.238281 351.929688 Z M 631.460938 351.929688 "/>
<path fill-rule="nonzero" fill="rgb(0%, 0%, 0%)" fill-opacity="1" d="M 653.441406 328.789062 L 653.441406 330.988281 L 645.574219 330.988281 L 645.574219 351.929688 L 642.914062 351.929688 L 642.914062 330.988281 L 635.046875 330.988281 L 635.046875 328.789062 Z M 653.441406 328.789062 "/>
<path fill-rule="nonzero" fill="rgb(0%, 0%, 0%)" fill-opacity="1" d="M 657.03125 328.789062 L 659.578125 328.789062 L 659.578125 351.929688 L 657.03125 351.929688 Z M 657.03125 328.789062 "/>
<path fill-rule="nonzero" fill="rgb(0%, 0%, 0%)" fill-opacity="1" d="M 680.285156 351.929688 L 668.253906 333.417969 C 667.867188 332.800781 667.519531 332.027344 667.210938 331.101562 L 667.097656 331.101562 C 667.328125 332.027344 667.441406 333.300781 667.441406 334.921875 L 667.441406 351.929688 L 664.898438 351.929688 L 664.898438 328.789062 L 667.90625 328.789062 L 679.824219 347.414062 C 680.285156 348.1875 680.59375 348.804688 680.746094 349.265625 L 680.863281 349.265625 C 680.707031 348.109375 680.632812 346.914062 680.632812 345.679688 L 680.632812 328.789062 L 683.175781 328.789062 L 683.175781 351.929688 Z M 680.285156 351.929688 "/>
<path fill-rule="nonzero" fill="rgb(0%, 0%, 0%)" fill-opacity="1" d="M 698.910156 340.011719 L 708.863281 340.011719 L 708.863281 348.457031 C 706.933594 351.003906 703.617188 352.277344 698.910156 352.277344 C 691.660156 351.890625 687.84375 348.035156 687.457031 340.707031 C 687.765625 332.839844 691.429688 328.75 698.449219 328.441406 C 703.617188 328.519531 707.050781 330.796875 708.746094 335.269531 L 705.855469 335.960938 C 704.617188 332.570312 702.113281 330.832031 698.335938 330.753906 C 693.398438 331.21875 690.699219 334.5 690.234375 340.589844 C 690.621094 346.53125 693.476562 349.730469 698.796875 350.191406 C 702.269531 350.191406 704.773438 349.265625 706.316406 347.414062 L 706.316406 342.210938 L 698.910156 342.210938 Z M 698.910156 340.011719 "/>
</svg>
