<?xml version="1.0" encoding="UTF-8"?>
<svg width="200px" xmlns="http://www.w3.org/2000/svg" version="1.1" viewBox="0 0 1920 1080">
  <!-- Generator: Adobe Illustrator 30.3.0, SVG Export Plug-In . SVG Version: 2.1.3 Build 182)  -->
  <defs>
    <style>
      .st0 {
        font-family: MontserratAlternates-SemiBold, 'Montserrat Alternates';
        font-size: 105.41px;
        font-weight: 600;
        letter-spacing: .2em;
      }

      .st0, .st1 {
        isolation: isolate;
      }
    </style>
  </defs>
  <g>
    <g>
      <path d="M492.63,449.6c10.27,5.67,18.3,13.68,24.17,24.03,5.84,10.35,8.75,22.27,8.75,35.81s-2.92,25.49-8.75,35.92c-5.84,10.43-13.9,18.5-24.17,24.17-10.27,5.67-21.91,8.51-34.93,8.51-9.19,0-17.56-1.6-25.16-4.76-7.6-3.17-13.98-7.93-19.16-14.26v17.29h-29.78v-185.74h31.3v68.35c5.34-5.84,11.64-10.27,18.91-13.27s15.22-4.51,23.89-4.51c13.02,0,24.66,2.84,34.93,8.51v-.03ZM482.64,539.72c7.43-7.68,11.15-17.78,11.15-30.28s-3.72-22.63-11.15-30.28c-7.43-7.68-16.9-11.51-28.41-11.51-7.51,0-14.26,1.71-20.29,5.15-6,3.41-10.76,8.31-14.26,14.64s-5.26,13.68-5.26,22.02,1.76,15.69,5.26,22.02c3.5,6.33,8.26,11.23,14.26,14.64s12.77,5.12,20.29,5.12c11.51,0,20.97-3.83,28.41-11.51v-.03Z"/>
      <path d="M734.83,442.58v133.66h-29.78v-17.01c-5.01,6-11.26,10.65-18.77,13.9s-15.61,4.87-24.28,4.87c-17.86,0-31.93-4.95-42.17-14.89-10.27-9.94-15.39-24.66-15.39-44.18v-76.36h31.3v72.09c0,12.03,2.73,21,8.15,26.92,5.42,5.92,13.13,8.89,23.15,8.89,11.18,0,20.07-3.47,26.67-10.38s9.88-16.9,9.88-29.92v-67.6h31.3-.05Z"/>
      <path d="M955.39,442.58v113.41c0,47.07-23.12,70.6-69.34,70.6-12.19,0-23.84-1.62-34.93-4.87s-20.23-7.98-27.42-14.15l14.01-23.53c5.67,4.84,12.61,8.67,20.78,11.51,8.18,2.84,16.76,4.27,25.79,4.27,13.68,0,23.75-3.3,30.17-9.88,6.41-6.61,9.63-16.74,9.63-30.42v-6.25c-5.01,5.51-11.09,9.72-18.28,12.63-7.18,2.92-14.95,4.38-23.29,4.38-17.86,0-31.93-4.93-42.17-14.78-10.27-9.85-15.39-24.61-15.39-44.32v-68.59h31.3v64.58c0,11.86,2.73,20.73,8.15,26.64,5.42,5.92,13.13,8.89,23.15,8.89,11.18,0,20.07-3.41,26.67-10.27s9.88-16.76,9.88-29.78v-60.09h31.3l-.03.03Z"/>
      <path d="M1121.59,569.01c-3.69,3-8.15,5.26-13.4,6.77-5.26,1.49-10.82,2.26-16.65,2.26-14.7,0-26.04-3.83-34.05-11.51s-12.03-18.86-12.03-33.55v-119.9h31.3v30.55h35.81v25.02h-35.81v63.58c0,6.52,1.62,11.48,4.87,14.89,3.25,3.41,7.79,5.12,13.65,5.12,7.02,0,12.85-1.84,17.53-5.51l8.75,22.27h.03Z"/>
      <path d="M1292.83,536.97l16.52,19.27c-5.84,7.18-13.35,12.61-22.54,16.27-9.17,3.69-19.52,5.51-31.05,5.51-14.7,0-27.64-2.92-38.81-8.75-11.18-5.84-19.82-13.98-25.9-24.42-6.08-10.43-9.14-22.24-9.14-35.43s2.97-24.75,8.89-35.18c5.92-10.43,14.09-18.55,24.53-24.42,10.43-5.84,22.24-8.75,35.43-8.75s23.89,2.73,34.16,8.15c10.27,5.42,18.39,13.18,24.42,23.29,6.03,10.1,9,21.91,9,35.43l-102.4,20.04c3.17,7.68,8.26,13.52,15.28,17.53s15.44,6,25.3,6c14.53,0,26.62-4.84,36.31-14.51l.03-.03ZM1222.86,477.37c-7.1,7.51-10.65,17.62-10.65,30.28v.25l75.61-14.51c-2.17-8.18-6.55-14.78-13.13-19.79-6.61-5.01-14.56-7.51-23.89-7.51-11.51,0-20.81,3.74-27.91,11.26l-.03.03Z"/>
      <path d="M1422.5,569.25c-11.01-5.84-19.63-13.98-25.79-24.42-6.17-10.43-9.28-22.24-9.28-35.43s3.08-24.94,9.28-35.29c6.17-10.35,14.73-18.44,25.65-24.28,10.93-5.84,23.4-8.75,37.43-8.75,13.18,0,24.75,2.67,34.68,8.01,9.94,5.34,17.4,13.02,22.41,23.04l-24.03,14.01c-3.85-6.17-8.64-10.79-14.4-13.9-5.75-3.08-12.06-4.62-18.91-4.62-11.67,0-21.36,3.8-29.04,11.4-7.68,7.6-11.51,17.73-11.51,30.42s3.8,22.82,11.4,30.42c7.6,7.6,17.31,11.4,29.18,11.4,6.85,0,13.13-1.54,18.91-4.62,5.75-3.08,10.54-7.71,14.4-13.9l24.03,14.01c-5.17,10.02-12.74,17.73-22.65,23.15-9.94,5.42-21.42,8.15-34.43,8.15-13.85,0-26.29-2.92-37.3-8.75l-.03-.03Z"/>
    </g>
    <polygon points="1522.56 433.96 1474.22 504.68 1536.4 495.29 1522.56 433.96"/>
  </g>
  <g class="st1">
    <text class="st0" transform="translate(97.47 740.94)"><tspan x="0" y="0">il PC usato intelligente</tspan></text>
  </g>
</svg>