<?xml version="1.0" encoding="UTF-8"?>
<svg xmlns="http://www.w3.org/2000/svg" xmlns:xlink="http://www.w3.org/1999/xlink" width="1004.99" height="418.752" viewBox="0 0 1004.99 418.752">
<defs>
<clipPath id="clip-0">
<path clip-rule="nonzero" d="M 0.292969 0 L 1004.6875 0 L 1004.6875 418.503906 L 0.292969 418.503906 Z M 0.292969 0 "/>
</clipPath>
</defs>
<g clip-path="url(#clip-0)">
<path fill-rule="nonzero" fill="rgb(100%, 100%, 100%)" fill-opacity="1" d="M 0.292969 418.503906 L 1004.691406 418.503906 L 1004.691406 0 L 0.292969 0 Z M 0.292969 418.503906 "/>
</g>
<path fill-rule="nonzero" fill="rgb(6.307983%, 5.787659%, 5.090332%)" fill-opacity="1" d="M 159.011719 350.5 L 160.160156 349.054688 C 161.980469 350.582031 163.941406 351.785156 167.003906 351.785156 C 170.398438 351.785156 172.15625 349.800781 172.15625 347.53125 C 172.15625 344.828125 169.367188 343.648438 166.878906 342.75 C 163.632812 341.59375 160.019531 340.273438 160.019531 336.59375 C 160.019531 333.492188 162.476562 330.863281 166.960938 330.863281 C 169.265625 330.863281 171.542969 331.820312 173.113281 333.097656 L 172.046875 334.523438 C 170.59375 333.4375 169.0625 332.558594 166.90625 332.558594 C 163.546875 332.558594 162.027344 334.492188 162.027344 336.480469 C 162.027344 338.9375 164.566406 339.871094 167.128906 340.839844 C 170.46875 342.109375 174.164062 343.207031 174.164062 347.40625 C 174.164062 350.652344 171.570312 353.480469 166.90625 353.480469 C 163.710938 353.480469 160.941406 352.140625 159.011719 350.5 "/>
<path fill-rule="nonzero" fill="rgb(6.307983%, 5.787659%, 5.090332%)" fill-opacity="1" d="M 159.710938 350.425781 C 161.078125 351.496094 163.574219 352.980469 166.90625 352.980469 C 171.550781 352.980469 173.664062 350.089844 173.664062 347.40625 C 173.664062 343.824219 170.71875 342.71875 167.597656 341.546875 L 166.953125 341.304688 C 164.246094 340.285156 161.527344 339.257812 161.527344 336.476562 C 161.527344 334.277344 163.191406 332.058594 166.90625 332.058594 C 169.042969 332.058594 170.601562 332.875 171.941406 333.828125 L 172.417969 333.191406 C 170.839844 332.039062 168.832031 331.363281 166.960938 331.363281 C 162.511719 331.363281 160.519531 333.992188 160.519531 336.59375 C 160.519531 339.960938 163.988281 341.191406 167.046875 342.28125 C 169.144531 343.039062 172.65625 344.304688 172.65625 347.53125 C 172.65625 349.898438 170.910156 352.285156 167.003906 352.285156 C 163.9375 352.285156 161.917969 351.113281 160.234375 349.765625 Z M 166.90625 353.980469 C 162.925781 353.980469 160.046875 352.039062 158.691406 350.882812 L 158.320312 350.570312 L 160.085938 348.34375 L 160.480469 348.671875 C 162.351562 350.238281 164.179688 351.285156 167.003906 351.285156 C 170.21875 351.285156 171.65625 349.402344 171.65625 347.53125 C 171.65625 345.199219 169.214844 344.125 166.710938 343.21875 C 163.507812 342.082031 159.519531 340.664062 159.519531 336.59375 C 159.519531 332.925781 162.578125 330.363281 166.960938 330.363281 C 169.207031 330.363281 171.625 331.242188 173.429688 332.710938 L 173.800781 333.011719 L 172.144531 335.222656 L 171.746094 334.921875 C 170.25 333.804688 168.855469 333.058594 166.90625 333.058594 C 163.671875 333.058594 162.523438 334.902344 162.523438 336.476562 C 162.523438 338.566406 164.8125 339.429688 167.230469 340.34375 L 167.949219 340.613281 C 171.097656 341.792969 174.664062 343.128906 174.664062 347.40625 C 174.664062 350.570312 172.234375 353.980469 166.90625 353.980469 "/>
<path fill-rule="nonzero" fill="rgb(6.307983%, 5.787659%, 5.090332%)" fill-opacity="1" d="M 196.820312 341.859375 C 196.820312 336.566406 194.933594 332.621094 189.964844 332.621094 C 187.832031 332.621094 185.558594 333.878906 182.960938 336.175781 L 182.960938 348.949219 C 185.390625 350.96875 187.667969 351.722656 189.300781 351.722656 C 193.679688 351.722656 196.820312 347.699219 196.820312 341.859375 M 180.976562 331.402344 L 182.65625 331.402344 L 182.867188 334.113281 L 182.96875 334.113281 C 185.070312 332.421875 187.632812 330.863281 190.28125 330.863281 C 196.054688 330.863281 198.898438 335.1875 198.898438 341.851562 C 198.898438 349.164062 194.488281 353.480469 189.410156 353.480469 C 187.363281 353.480469 185.175781 352.507812 182.933594 350.832031 L 182.960938 354.804688 L 182.960938 362.691406 L 180.976562 362.691406 Z M 180.976562 331.402344 "/>
<path fill-rule="nonzero" fill="rgb(6.307983%, 5.787659%, 5.090332%)" fill-opacity="1" d="M 183.457031 348.710938 C 185.441406 350.308594 187.558594 351.222656 189.304688 351.222656 C 193.433594 351.222656 196.320312 347.371094 196.320312 341.863281 C 196.320312 337.875 195.21875 333.121094 189.964844 333.121094 C 188.101562 333.121094 186.027344 334.164062 183.457031 336.402344 Z M 189.304688 352.222656 C 188.113281 352.222656 185.664062 351.847656 182.640625 349.332031 L 182.460938 349.183594 L 182.460938 335.949219 L 182.628906 335.800781 C 185.46875 333.292969 187.800781 332.125 189.964844 332.125 C 194.707031 332.125 197.320312 335.582031 197.320312 341.863281 C 197.320312 347.960938 194.023438 352.222656 189.304688 352.222656 M 181.476562 362.191406 L 182.460938 362.191406 L 182.425781 349.828125 L 183.230469 350.433594 C 185.492188 352.121094 187.570312 352.980469 189.410156 352.980469 C 195.3125 352.980469 198.398438 347.382812 198.398438 341.851562 C 198.398438 337.9375 197.34375 331.363281 190.277344 331.363281 C 188.199219 331.363281 185.910156 332.390625 183.28125 334.5 L 183.144531 334.613281 L 182.507812 334.613281 L 182.371094 334.152344 L 182.191406 331.902344 L 181.476562 331.902344 Z M 183.457031 363.191406 L 180.476562 363.191406 L 180.476562 330.902344 L 183.117188 330.902344 L 183.300781 333.21875 C 185.851562 331.300781 188.144531 330.363281 190.277344 330.363281 C 196.074219 330.363281 199.398438 334.550781 199.398438 341.851562 C 199.398438 349.8125 194.375 353.980469 189.410156 353.980469 C 187.578125 353.980469 185.574219 353.25 183.4375 351.804688 L 183.457031 354.804688 Z M 183.457031 363.191406 "/>
<path fill-rule="nonzero" fill="rgb(6.307983%, 5.787659%, 5.090332%)" fill-opacity="1" d="M 221.941406 342.210938 C 221.941406 336.542969 218.703125 332.613281 214.351562 332.613281 C 210 332.613281 206.761719 336.542969 206.761719 342.210938 C 206.761719 347.878906 210 351.730469 214.351562 351.730469 C 218.703125 351.730469 221.941406 347.878906 221.941406 342.210938 M 204.679688 342.210938 C 204.679688 335.007812 209.175781 330.863281 214.351562 330.863281 C 219.527344 330.863281 224.023438 335.007812 224.023438 342.210938 C 224.023438 349.335938 219.527344 353.480469 214.351562 353.480469 C 209.175781 353.480469 204.679688 349.335938 204.679688 342.210938 "/>
<path fill-rule="nonzero" fill="rgb(6.307983%, 5.787659%, 5.090332%)" fill-opacity="1" d="M 214.351562 333.109375 C 210.242188 333.109375 207.261719 336.9375 207.261719 342.210938 C 207.261719 347.523438 210.175781 351.230469 214.351562 351.230469 C 218.527344 351.230469 221.441406 347.523438 221.441406 342.210938 C 221.441406 336.9375 218.460938 333.109375 214.351562 333.109375 M 214.351562 352.230469 C 209.664062 352.230469 206.261719 348.015625 206.261719 342.210938 C 206.261719 336.359375 209.664062 332.113281 214.351562 332.113281 C 219.039062 332.113281 222.441406 336.359375 222.441406 342.210938 C 222.441406 348.015625 219.039062 352.230469 214.351562 352.230469 M 214.351562 331.363281 C 209.933594 331.363281 205.179688 334.757812 205.179688 342.210938 C 205.179688 349.609375 209.933594 352.980469 214.351562 352.980469 C 218.769531 352.980469 223.523438 349.609375 223.523438 342.210938 C 223.523438 334.757812 218.769531 331.363281 214.351562 331.363281 M 214.351562 353.980469 C 207.675781 353.980469 204.179688 348.058594 204.179688 342.210938 C 204.179688 334.070312 209.453125 330.363281 214.351562 330.363281 C 219.25 330.363281 224.523438 334.070312 224.523438 342.210938 C 224.523438 348.058594 221.03125 353.980469 214.351562 353.980469 "/>
<path fill-rule="nonzero" fill="rgb(6.307983%, 5.787659%, 5.090332%)" fill-opacity="1" d="M 231.605469 331.402344 L 233.285156 331.402344 L 233.5 335.421875 L 233.597656 335.421875 C 235.054688 332.773438 237.164062 330.863281 239.722656 330.863281 C 240.511719 330.863281 241.152344 330.964844 241.859375 331.3125 L 241.410156 333.105469 C 240.6875 332.847656 240.289062 332.746094 239.464844 332.746094 C 237.527344 332.746094 235.230469 334.21875 233.589844 338.292969 L 233.589844 352.941406 L 231.605469 352.941406 Z M 231.605469 331.402344 "/>
<path fill-rule="nonzero" fill="rgb(6.307983%, 5.787659%, 5.090332%)" fill-opacity="1" d="M 232.105469 352.441406 L 233.089844 352.441406 L 233.125 338.105469 C 235.253906 332.816406 238.269531 332.246094 239.464844 332.246094 C 240.132812 332.246094 240.5625 332.3125 241.058594 332.460938 L 241.273438 331.601562 C 240.820312 331.433594 240.355469 331.363281 239.722656 331.363281 C 236.832031 331.363281 234.917969 334.054688 234.035156 335.664062 L 233.894531 335.921875 L 233.125 335.921875 L 233 335.449219 L 232.8125 331.902344 L 232.105469 331.902344 Z M 234.089844 353.441406 L 231.105469 353.441406 L 231.105469 330.902344 L 233.757812 330.902344 L 233.921875 333.949219 C 235.535156 331.625 237.558594 330.363281 239.722656 330.363281 C 240.679688 330.363281 241.363281 330.507812 242.078125 330.863281 L 242.441406 331.042969 L 241.761719 333.761719 L 241.242188 333.578125 C 240.542969 333.324219 240.207031 333.246094 239.464844 333.246094 C 237.382812 333.246094 235.425781 335.121094 234.089844 338.390625 Z M 234.089844 353.441406 "/>
<path fill-rule="nonzero" fill="rgb(6.307983%, 5.787659%, 5.090332%)" fill-opacity="1" d="M 247.445312 346.992188 L 247.445312 333.132812 L 244.082031 333.132812 L 244.082031 331.589844 L 247.492188 331.402344 L 247.742188 325.167969 L 249.425781 325.167969 L 249.425781 331.402344 L 255.671875 331.402344 L 255.671875 333.132812 L 249.425781 333.132812 L 249.425781 347.140625 C 249.425781 349.890625 250.117188 351.746094 253.085938 351.746094 C 253.886719 351.746094 255.007812 351.40625 255.789062 351.066406 L 256.308594 352.671875 C 255.058594 353.113281 253.683594 353.480469 252.792969 353.480469 C 248.65625 353.480469 247.445312 350.847656 247.445312 346.992188 "/>
<path fill-rule="nonzero" fill="rgb(6.307983%, 5.787659%, 5.090332%)" fill-opacity="1" d="M 244.582031 332.632812 L 247.945312 332.632812 L 247.945312 346.992188 C 247.945312 351.1875 249.394531 352.980469 252.792969 352.980469 C 253.433594 352.980469 254.472656 352.753906 255.679688 352.355469 L 255.476562 351.730469 C 254.746094 352 253.824219 352.246094 253.085938 352.246094 C 249.398438 352.246094 248.925781 349.519531 248.925781 347.140625 L 248.925781 332.632812 L 255.171875 332.632812 L 255.171875 331.902344 L 248.925781 331.902344 L 248.925781 325.667969 L 248.222656 325.667969 L 247.972656 331.875 L 244.582031 332.0625 Z M 252.792969 353.976562 C 248.859375 353.976562 246.945312 351.695312 246.945312 346.992188 L 246.945312 333.632812 L 243.582031 333.632812 L 243.582031 331.117188 L 247.011719 330.925781 L 247.261719 324.667969 L 249.925781 324.667969 L 249.925781 330.902344 L 256.171875 330.902344 L 256.171875 333.632812 L 249.925781 333.632812 L 249.925781 347.140625 C 249.925781 350.132812 250.78125 351.246094 253.085938 351.246094 C 253.804688 351.246094 254.859375 350.925781 255.589844 350.609375 L 256.09375 350.386719 L 256.933594 352.980469 L 256.472656 353.144531 C 255.589844 353.457031 253.929688 353.976562 252.792969 353.976562 "/>
<path fill-rule="nonzero" fill="rgb(6.307983%, 5.787659%, 5.090332%)" fill-opacity="1" d="M 269.464844 350.5 L 270.613281 349.054688 C 272.433594 350.582031 274.394531 351.785156 277.457031 351.785156 C 280.847656 351.785156 282.605469 349.800781 282.605469 347.53125 C 282.605469 344.828125 279.816406 343.648438 277.332031 342.75 C 274.085938 341.59375 270.46875 340.273438 270.46875 336.59375 C 270.46875 333.492188 272.925781 330.863281 277.410156 330.863281 C 279.714844 330.863281 281.996094 331.820312 283.566406 333.097656 L 282.496094 334.523438 C 281.046875 333.4375 279.515625 332.558594 277.359375 332.558594 C 274 332.558594 272.476562 334.492188 272.476562 336.480469 C 272.476562 338.9375 275.015625 339.871094 277.582031 340.839844 C 280.917969 342.109375 284.613281 343.207031 284.613281 347.40625 C 284.613281 350.652344 282.023438 353.480469 277.359375 353.480469 C 274.164062 353.480469 271.394531 352.140625 269.464844 350.5 "/>
<path fill-rule="nonzero" fill="rgb(6.307983%, 5.787659%, 5.090332%)" fill-opacity="1" d="M 270.164062 350.425781 C 271.53125 351.496094 274.027344 352.980469 277.359375 352.980469 C 282 352.980469 284.113281 350.089844 284.113281 347.40625 C 284.113281 343.824219 281.167969 342.71875 278.050781 341.546875 L 277.402344 341.304688 C 274.699219 340.285156 271.976562 339.257812 271.976562 336.476562 C 271.976562 334.277344 273.640625 332.058594 277.359375 332.058594 C 279.496094 332.058594 281.050781 332.875 282.394531 333.828125 L 282.871094 333.191406 C 281.289062 332.039062 279.285156 331.363281 277.410156 331.363281 C 272.960938 331.363281 270.96875 333.992188 270.96875 336.59375 C 270.96875 339.960938 274.4375 341.191406 277.5 342.28125 C 279.597656 343.035156 283.105469 344.304688 283.105469 347.53125 C 283.105469 349.898438 281.359375 352.285156 277.457031 352.285156 C 274.390625 352.285156 272.371094 351.113281 270.6875 349.765625 Z M 277.359375 353.980469 C 273.378906 353.980469 270.5 352.039062 269.140625 350.882812 L 268.773438 350.570312 L 270.539062 348.34375 L 270.933594 348.671875 C 272.804688 350.238281 274.628906 351.285156 277.457031 351.285156 C 280.671875 351.285156 282.105469 349.402344 282.105469 347.53125 C 282.105469 345.199219 279.664062 344.125 277.160156 343.21875 C 273.957031 342.082031 269.96875 340.664062 269.96875 336.59375 C 269.96875 332.925781 273.03125 330.363281 277.410156 330.363281 C 279.660156 330.363281 282.078125 331.242188 283.882812 332.710938 L 284.253906 333.011719 L 282.597656 335.222656 L 282.199219 334.921875 C 280.703125 333.804688 279.304688 333.058594 277.359375 333.058594 C 274.125 333.058594 272.976562 334.902344 272.976562 336.476562 C 272.976562 338.566406 275.261719 339.429688 277.679688 340.339844 L 278.398438 340.613281 C 281.546875 341.792969 285.113281 343.128906 285.113281 347.40625 C 285.113281 350.570312 282.6875 353.980469 277.359375 353.980469 "/>
<path fill-rule="nonzero" fill="rgb(6.307983%, 5.787659%, 5.090332%)" fill-opacity="1" d="M 291.085938 345.21875 L 291.085938 331.402344 L 293.070312 331.402344 L 293.070312 344.957031 C 293.070312 349.523438 294.515625 351.695312 297.976562 351.695312 C 300.542969 351.695312 302.398438 350.347656 304.917969 347.296875 L 304.917969 331.402344 L 306.902344 331.402344 L 306.902344 352.941406 L 305.226562 352.941406 L 305.007812 349.335938 L 304.910156 349.335938 C 302.792969 351.8125 300.570312 353.480469 297.597656 353.480469 C 293.148438 353.480469 291.085938 350.78125 291.085938 345.21875 "/>
<path fill-rule="nonzero" fill="rgb(6.307983%, 5.787659%, 5.090332%)" fill-opacity="1" d="M 291.585938 331.902344 L 291.585938 345.21875 C 291.585938 350.511719 293.496094 352.980469 297.597656 352.980469 C 300.078125 352.980469 302.152344 351.792969 304.53125 349.007812 L 304.679688 348.832031 L 305.382812 348.832031 L 305.507812 349.304688 L 305.695312 352.441406 L 306.402344 352.441406 L 306.402344 331.902344 L 305.417969 331.902344 L 305.417969 347.476562 L 305.304688 347.617188 C 302.96875 350.441406 300.929688 352.195312 297.976562 352.195312 C 293.128906 352.195312 292.570312 348.0625 292.570312 344.957031 L 292.570312 331.902344 Z M 297.597656 353.980469 C 292.882812 353.980469 290.585938 351.113281 290.585938 345.21875 L 290.585938 330.902344 L 293.566406 330.902344 L 293.566406 344.957031 C 293.566406 349.328125 294.886719 351.195312 297.976562 351.195312 C 300.210938 351.195312 301.910156 350.125 304.421875 347.117188 L 304.421875 330.902344 L 307.402344 330.902344 L 307.402344 353.441406 L 304.757812 353.441406 L 304.578125 350.457031 C 302.914062 352.234375 300.679688 353.980469 297.597656 353.980469 "/>
<path fill-rule="nonzero" fill="rgb(6.307983%, 5.787659%, 5.090332%)" fill-opacity="1" d="M 316.273438 331.402344 L 317.949219 331.402344 L 318.164062 335.421875 L 318.265625 335.421875 C 319.722656 332.773438 321.832031 330.863281 324.390625 330.863281 C 325.175781 330.863281 325.816406 330.964844 326.523438 331.3125 L 326.078125 333.105469 C 325.351562 332.847656 324.953125 332.746094 324.128906 332.746094 C 322.195312 332.746094 319.898438 334.21875 318.253906 338.292969 L 318.253906 352.941406 L 316.273438 352.941406 Z M 316.273438 331.402344 "/>
<path fill-rule="nonzero" fill="rgb(6.307983%, 5.787659%, 5.090332%)" fill-opacity="1" d="M 316.773438 352.441406 L 317.753906 352.441406 L 317.792969 338.105469 C 319.921875 332.816406 322.933594 332.246094 324.128906 332.246094 C 324.800781 332.246094 325.226562 332.3125 325.722656 332.460938 L 325.9375 331.601562 C 325.484375 331.433594 325.019531 331.363281 324.390625 331.363281 C 321.5 331.363281 319.585938 334.054688 318.699219 335.664062 L 318.558594 335.921875 L 317.789062 335.921875 L 317.667969 335.449219 L 317.476562 331.902344 L 316.773438 331.902344 Z M 318.753906 353.441406 L 315.773438 353.441406 L 315.773438 330.902344 L 318.421875 330.902344 L 318.585938 333.949219 C 320.199219 331.625 322.222656 330.363281 324.390625 330.363281 C 325.34375 330.363281 326.027344 330.507812 326.746094 330.863281 L 327.109375 331.042969 L 326.425781 333.761719 L 325.90625 333.578125 C 325.207031 333.324219 324.871094 333.246094 324.128906 333.246094 C 322.050781 333.246094 320.09375 335.121094 318.753906 338.390625 Z M 318.753906 353.441406 "/>
<path fill-rule="nonzero" fill="rgb(6.307983%, 5.787659%, 5.090332%)" fill-opacity="1" d="M 331.90625 326.613281 C 331.90625 322.335938 333.824219 320.136719 337.234375 320.136719 C 338.246094 320.136719 339.386719 320.421875 340.371094 320.863281 L 339.835938 322.476562 C 338.957031 322.042969 338.066406 321.863281 337.269531 321.863281 C 334.945312 321.863281 333.886719 323.628906 333.886719 326.746094 L 333.886719 352.941406 L 331.90625 352.941406 Z M 328.945312 331.589844 L 331.949219 331.402344 L 338.867188 331.402344 L 338.867188 333.132812 L 328.945312 333.132812 Z M 328.945312 331.589844 "/>
<path fill-rule="nonzero" fill="rgb(6.307983%, 5.787659%, 5.090332%)" fill-opacity="1" d="M 337.234375 320.636719 C 333.242188 320.636719 332.40625 323.886719 332.40625 326.613281 L 332.40625 330.902344 L 333.386719 330.902344 L 333.386719 326.746094 C 333.386719 322.296875 335.5 321.363281 337.269531 321.363281 C 338.027344 321.363281 338.800781 321.511719 339.535156 321.796875 L 339.75 321.144531 C 338.898438 320.820312 338 320.636719 337.234375 320.636719 M 329.445312 332.632812 L 331.40625 332.632812 L 331.40625 331.933594 L 329.445312 332.058594 Z M 332.40625 332.632812 L 333.386719 332.632812 L 333.386719 331.902344 L 332.40625 331.902344 Z M 334.386719 332.632812 L 338.363281 332.632812 L 338.363281 331.902344 L 334.386719 331.902344 Z M 332.40625 352.441406 L 333.386719 352.441406 L 333.386719 333.632812 L 332.40625 333.632812 Z M 334.386719 353.441406 L 331.40625 353.441406 L 331.40625 333.632812 L 328.445312 333.632812 L 328.445312 331.121094 L 331.40625 330.933594 L 331.40625 326.613281 C 331.40625 322.113281 333.476562 319.636719 337.234375 319.636719 C 338.261719 319.636719 339.480469 319.914062 340.578125 320.40625 L 340.992188 320.589844 L 340.128906 323.175781 L 339.613281 322.925781 C 338.867188 322.558594 338.058594 322.363281 337.269531 322.363281 C 336.554688 322.363281 334.386719 322.363281 334.386719 326.746094 L 334.386719 330.902344 L 339.367188 330.902344 L 339.367188 333.632812 L 334.386719 333.632812 Z M 334.386719 353.441406 "/>
<path fill-rule="nonzero" fill="rgb(6.307983%, 5.787659%, 5.090332%)" fill-opacity="1" d="M 355.980469 348.292969 L 355.980469 340.964844 C 347.132812 341.988281 344.113281 344.042969 344.113281 347.476562 C 344.113281 350.566406 346.203125 351.757812 348.679688 351.757812 C 351.144531 351.757812 353.316406 350.5625 355.980469 348.292969 M 342.085938 347.582031 C 342.085938 342.792969 346.402344 340.515625 355.980469 339.457031 C 356.042969 336.148438 355.136719 332.605469 350.902344 332.605469 C 347.996094 332.605469 345.484375 334.039062 344.039062 335.132812 L 343.125 333.664062 C 344.652344 332.585938 347.636719 330.863281 351.136719 330.863281 C 356.242188 330.863281 357.960938 334.570312 357.960938 339.179688 L 357.960938 352.941406 L 356.285156 352.941406 L 356.070312 350.140625 L 355.972656 350.140625 C 353.773438 351.917969 351.15625 353.480469 348.328125 353.480469 C 344.921875 353.480469 342.085938 351.621094 342.085938 347.582031 "/>
<path fill-rule="nonzero" fill="rgb(6.307983%, 5.787659%, 5.090332%)" fill-opacity="1" d="M 355.480469 341.527344 C 345.945312 342.714844 344.613281 345.085938 344.613281 347.476562 C 344.613281 350.765625 347.160156 351.257812 348.679688 351.257812 C 350.800781 351.257812 352.78125 350.328125 355.480469 348.0625 Z M 348.679688 352.253906 C 345.507812 352.253906 343.613281 350.46875 343.613281 347.476562 C 343.613281 343.511719 347.179688 341.480469 355.921875 340.46875 L 356.480469 340.402344 L 356.480469 348.527344 L 356.304688 348.675781 C 353.316406 351.21875 351.105469 352.253906 348.679688 352.253906 M 350.902344 332.101562 C 352.507812 332.101562 353.796875 332.585938 354.730469 333.539062 C 355.945312 334.773438 356.53125 336.765625 356.480469 339.464844 L 356.472656 339.90625 L 356.035156 339.953125 C 346.480469 341.011719 342.585938 343.21875 342.585938 347.582031 C 342.585938 350.960938 344.730469 352.980469 348.328125 352.980469 C 350.574219 352.980469 352.96875 351.925781 355.65625 349.753906 L 355.792969 349.640625 L 356.433594 349.640625 L 356.570312 350.105469 L 356.746094 352.441406 L 357.460938 352.441406 L 357.460938 339.179688 C 357.460938 333.992188 355.332031 331.363281 351.136719 331.363281 C 348.035156 331.363281 345.332031 332.789062 343.800781 333.804688 L 344.179688 334.414062 C 345.589844 333.429688 348.023438 332.101562 350.902344 332.101562 M 348.328125 353.980469 C 344.167969 353.980469 341.585938 351.527344 341.585938 347.582031 C 341.585938 342.65625 345.617188 340.160156 355.484375 339.011719 C 355.464844 336.816406 354.972656 335.210938 354.019531 334.238281 C 353.28125 333.484375 352.230469 333.101562 350.902344 333.101562 C 347.984375 333.101562 345.539062 334.625 344.339844 335.53125 L 343.90625 335.863281 L 342.453125 333.527344 L 342.835938 333.253906 C 344.367188 332.175781 347.476562 330.363281 351.136719 330.363281 C 355.859375 330.363281 358.460938 333.496094 358.460938 339.179688 L 358.460938 353.441406 L 355.824219 353.441406 L 355.636719 351.039062 C 353.019531 353.015625 350.621094 353.980469 348.328125 353.980469 "/>
<path fill-rule="nonzero" fill="rgb(6.307983%, 5.787659%, 5.090332%)" fill-opacity="1" d="M 364.957031 342.210938 C 364.957031 335.007812 369.558594 330.863281 374.796875 330.863281 C 377.730469 330.863281 379.640625 332.164062 381.101562 333.519531 L 379.9375 334.898438 C 378.546875 333.609375 376.941406 332.613281 374.84375 332.613281 C 370.4375 332.613281 367.035156 336.542969 367.035156 342.210938 C 367.035156 347.878906 370.132812 351.730469 374.816406 351.730469 C 377.121094 351.730469 379.105469 350.617188 380.582031 349.246094 L 381.605469 350.636719 C 379.765625 352.285156 377.460938 353.480469 374.726562 353.480469 C 369.164062 353.480469 364.957031 349.335938 364.957031 342.210938 "/>
<path fill-rule="nonzero" fill="rgb(6.307983%, 5.787659%, 5.090332%)" fill-opacity="1" d="M 374.796875 331.363281 C 370.296875 331.363281 365.453125 334.757812 365.453125 342.210938 C 365.453125 348.75 369.09375 352.980469 374.726562 352.980469 C 376.929688 352.980469 379.015625 352.164062 380.929688 350.558594 L 380.503906 349.980469 C 379.199219 351.082031 377.253906 352.230469 374.816406 352.230469 C 369.863281 352.230469 366.535156 348.203125 366.535156 342.210938 C 366.535156 336.359375 370.03125 332.113281 374.84375 332.113281 C 377.101562 332.113281 378.761719 333.210938 379.886719 334.183594 L 380.410156 333.566406 C 379.160156 332.480469 377.414062 331.363281 374.796875 331.363281 M 374.726562 353.980469 C 368.582031 353.980469 364.457031 349.25 364.457031 342.210938 C 364.457031 336.324219 368.007812 330.363281 374.796875 330.363281 C 378.019531 330.363281 380.042969 331.855469 381.441406 333.152344 L 381.792969 333.476562 L 379.980469 335.625 L 379.597656 335.265625 C 377.992188 333.777344 376.527344 333.109375 374.84375 333.109375 C 370.609375 333.109375 367.535156 336.9375 367.535156 342.210938 C 367.535156 347.605469 370.460938 351.230469 374.816406 351.230469 C 377.207031 351.230469 379.085938 349.949219 380.246094 348.878906 L 380.65625 348.496094 L 382.277344 350.703125 L 381.9375 351.007812 C 379.742188 352.976562 377.316406 353.980469 374.726562 353.980469 "/>
<path fill-rule="nonzero" fill="rgb(6.307983%, 5.787659%, 5.090332%)" fill-opacity="1" d="M 401.21875 340.8125 C 401.21875 335.3125 398.722656 332.578125 394.859375 332.578125 C 391.214844 332.578125 387.921875 335.660156 387.472656 340.8125 Z M 385.445312 342.210938 C 385.445312 335.1875 390.011719 330.863281 394.839844 330.863281 C 399.945312 330.863281 403.085938 334.496094 403.085938 340.828125 C 403.085938 341.367188 403.066406 341.90625 402.972656 342.445312 L 387.484375 342.445312 C 387.554688 347.878906 390.738281 351.765625 395.59375 351.765625 C 397.925781 351.765625 399.765625 350.992188 401.378906 349.855469 L 402.195312 351.363281 C 400.5 352.417969 398.5625 353.480469 395.40625 353.480469 C 389.90625 353.480469 385.445312 349.253906 385.445312 342.210938 "/>
<path fill-rule="nonzero" fill="rgb(6.307983%, 5.787659%, 5.090332%)" fill-opacity="1" d="M 388.03125 340.3125 L 400.710938 340.3125 C 400.574219 335.640625 398.507812 333.078125 394.859375 333.078125 C 391.347656 333.078125 388.597656 336.023438 388.03125 340.3125 M 401.714844 341.3125 L 386.929688 341.3125 L 386.976562 340.769531 C 387.421875 335.652344 390.664062 332.078125 394.859375 332.078125 C 399.214844 332.078125 401.714844 335.261719 401.714844 340.8125 Z M 394.839844 331.363281 C 390.527344 331.363281 385.945312 335.164062 385.945312 342.210938 C 385.945312 348.550781 389.835938 352.980469 395.40625 352.980469 C 398.167969 352.980469 399.96875 352.125 401.53125 351.183594 L 401.203125 350.578125 C 399.421875 351.726562 397.625 352.265625 395.59375 352.265625 C 390.519531 352.265625 387.0625 348.320312 386.984375 342.453125 L 386.976562 341.945312 L 402.535156 341.945312 C 402.578125 341.550781 402.585938 341.167969 402.585938 340.828125 C 402.585938 334.8125 399.761719 331.363281 394.839844 331.363281 M 395.40625 353.980469 C 389.25 353.980469 384.945312 349.140625 384.945312 342.210938 C 384.945312 334.515625 390.042969 330.363281 394.839844 330.363281 C 400.316406 330.363281 403.585938 334.277344 403.585938 340.828125 C 403.585938 341.328125 403.570312 341.921875 403.460938 342.53125 L 403.390625 342.945312 L 388 342.945312 C 388.253906 347.945312 391.257812 351.265625 395.59375 351.265625 C 397.585938 351.265625 399.332031 350.6875 401.089844 349.449219 L 401.550781 349.121094 L 402.859375 351.539062 L 402.460938 351.785156 C 400.679688 352.894531 398.671875 353.980469 395.40625 353.980469 "/>
<path fill-rule="nonzero" fill="rgb(6.307983%, 5.787659%, 5.090332%)" fill-opacity="1" d="M 407.359375 350.5 L 408.507812 349.054688 C 410.328125 350.582031 412.289062 351.785156 415.351562 351.785156 C 418.742188 351.785156 420.5 349.800781 420.5 347.53125 C 420.5 344.828125 417.710938 343.648438 415.226562 342.75 C 411.980469 341.59375 408.363281 340.273438 408.363281 336.59375 C 408.363281 333.492188 410.820312 330.863281 415.308594 330.863281 C 417.609375 330.863281 419.890625 331.820312 421.460938 333.097656 L 420.390625 334.523438 C 418.941406 333.4375 417.410156 332.558594 415.253906 332.558594 C 411.894531 332.558594 410.371094 334.492188 410.371094 336.480469 C 410.371094 338.9375 412.910156 339.871094 415.476562 340.839844 C 418.8125 342.109375 422.507812 343.207031 422.507812 347.40625 C 422.507812 350.652344 419.917969 353.480469 415.253906 353.480469 C 412.058594 353.480469 409.289062 352.140625 407.359375 350.5 "/>
<path fill-rule="nonzero" fill="rgb(6.307983%, 5.787659%, 5.090332%)" fill-opacity="1" d="M 408.058594 350.425781 C 409.425781 351.496094 411.921875 352.980469 415.253906 352.980469 C 419.894531 352.980469 422.011719 350.089844 422.011719 347.40625 C 422.011719 343.824219 419.0625 342.71875 415.945312 341.546875 L 415.300781 341.304688 C 412.59375 340.285156 409.871094 339.257812 409.871094 336.476562 C 409.871094 334.277344 411.535156 332.058594 415.253906 332.058594 C 417.390625 332.058594 418.945312 332.875 420.289062 333.828125 L 420.765625 333.191406 C 419.183594 332.039062 417.179688 331.363281 415.308594 331.363281 C 410.855469 331.363281 408.863281 333.992188 408.863281 336.59375 C 408.863281 339.957031 412.332031 341.191406 415.394531 342.28125 C 417.492188 343.039062 421 344.304688 421 347.53125 C 421 349.898438 419.253906 352.285156 415.351562 352.285156 C 412.285156 352.285156 410.265625 351.113281 408.582031 349.765625 Z M 415.253906 353.980469 C 411.269531 353.980469 408.394531 352.039062 407.035156 350.882812 L 406.667969 350.570312 L 408.433594 348.34375 L 408.828125 348.671875 C 410.699219 350.238281 412.523438 351.285156 415.351562 351.285156 C 418.5625 351.285156 420 349.402344 420 347.53125 C 420 345.199219 417.558594 344.125 415.058594 343.21875 C 411.855469 342.082031 407.863281 340.664062 407.863281 336.59375 C 407.863281 332.925781 410.925781 330.363281 415.308594 330.363281 C 417.554688 330.363281 419.972656 331.242188 421.777344 332.710938 L 422.148438 333.011719 L 420.492188 335.222656 L 420.09375 334.921875 C 418.597656 333.804688 417.199219 333.058594 415.253906 333.058594 C 412.019531 333.058594 410.871094 334.902344 410.871094 336.476562 C 410.871094 338.566406 413.15625 339.429688 415.578125 340.34375 L 416.296875 340.613281 C 419.445312 341.792969 423.007812 343.128906 423.007812 347.40625 C 423.007812 350.570312 420.582031 353.980469 415.253906 353.980469 "/>
<path fill-rule="nonzero" fill="rgb(6.307983%, 5.787659%, 5.090332%)" fill-opacity="1" d="M 437.089844 340.875 L 446.941406 340.875 L 446.941406 342.625 L 437.089844 342.625 Z M 437.089844 340.875 "/>
<path fill-rule="nonzero" fill="rgb(6.307983%, 5.787659%, 5.090332%)" fill-opacity="1" d="M 437.589844 342.125 L 446.4375 342.125 L 446.4375 341.375 L 437.589844 341.375 Z M 447.4375 343.125 L 436.589844 343.125 L 436.589844 340.375 L 447.4375 340.375 Z M 447.4375 343.125 "/>
<path fill-rule="nonzero" fill="rgb(6.307983%, 5.787659%, 5.090332%)" fill-opacity="1" d="M 463.945312 331.402344 L 465.925781 331.402344 L 465.925781 352.941406 L 463.945312 352.941406 Z M 463.171875 324.441406 C 463.171875 323.328125 463.996094 322.683594 464.976562 322.683594 C 465.953125 322.683594 466.777344 323.328125 466.777344 324.441406 C 466.777344 325.472656 465.953125 326.199219 464.976562 326.199219 C 463.996094 326.199219 463.171875 325.472656 463.171875 324.441406 "/>
<path fill-rule="nonzero" fill="rgb(6.307983%, 5.787659%, 5.090332%)" fill-opacity="1" d="M 464.976562 323.179688 C 464.328125 323.179688 463.671875 323.570312 463.671875 324.441406 C 463.671875 325.15625 464.230469 325.699219 464.976562 325.699219 C 465.71875 325.699219 466.277344 325.15625 466.277344 324.441406 C 466.277344 323.570312 465.625 323.179688 464.976562 323.179688 M 464.976562 326.699219 C 463.683594 326.699219 462.671875 325.707031 462.671875 324.441406 C 462.671875 323.132812 463.640625 322.183594 464.976562 322.183594 C 466.308594 322.183594 467.277344 323.132812 467.277344 324.441406 C 467.277344 325.707031 466.265625 326.699219 464.976562 326.699219 M 464.445312 352.441406 L 465.425781 352.441406 L 465.425781 331.898438 L 464.445312 331.898438 Z M 466.425781 353.441406 L 463.445312 353.441406 L 463.445312 330.902344 L 466.425781 330.902344 Z M 466.425781 353.441406 "/>
<path fill-rule="nonzero" fill="rgb(6.307983%, 5.787659%, 5.090332%)" fill-opacity="1" d="M 475.335938 331.402344 L 477.011719 331.402344 L 477.226562 334.738281 L 477.324219 334.738281 C 479.523438 332.550781 481.765625 330.863281 484.734375 330.863281 C 489.183594 330.863281 491.246094 333.566406 491.246094 339.125 L 491.246094 352.941406 L 489.265625 352.941406 L 489.265625 339.386719 C 489.265625 334.820312 487.824219 332.648438 484.359375 332.648438 C 481.792969 332.648438 479.933594 334.003906 477.316406 336.695312 L 477.316406 352.941406 L 475.335938 352.941406 Z M 475.335938 331.402344 "/>
<path fill-rule="nonzero" fill="rgb(6.307983%, 5.787659%, 5.090332%)" fill-opacity="1" d="M 489.765625 352.441406 L 490.746094 352.441406 L 490.746094 339.125 C 490.746094 333.832031 488.835938 331.363281 484.734375 331.363281 C 481.828125 331.363281 479.625 333.15625 477.675781 335.09375 L 477.53125 335.238281 L 476.855469 335.238281 L 476.726562 334.769531 L 476.542969 331.902344 L 475.835938 331.902344 L 475.835938 352.441406 L 476.816406 352.441406 L 476.816406 336.492188 L 476.960938 336.347656 C 479.605469 333.625 481.570312 332.148438 484.359375 332.148438 C 489.203125 332.148438 489.765625 336.277344 489.765625 339.386719 Z M 491.746094 353.441406 L 488.765625 353.441406 L 488.765625 339.386719 C 488.765625 335.015625 487.449219 333.148438 484.359375 333.148438 C 481.972656 333.148438 480.203125 334.464844 477.816406 336.898438 L 477.816406 353.441406 L 474.835938 353.441406 L 474.835938 330.902344 L 477.480469 330.902344 L 477.664062 333.71875 C 479.597656 331.902344 481.816406 330.363281 484.734375 330.363281 C 489.453125 330.363281 491.746094 333.230469 491.746094 339.125 Z M 491.746094 353.441406 "/>
<path fill-rule="nonzero" fill="rgb(6.307983%, 5.787659%, 5.090332%)" fill-opacity="1" d="M 500.609375 326.613281 C 500.609375 322.335938 502.527344 320.136719 505.9375 320.136719 C 506.949219 320.136719 508.089844 320.421875 509.074219 320.863281 L 508.539062 322.476562 C 507.660156 322.042969 506.769531 321.863281 505.972656 321.863281 C 503.648438 321.863281 502.589844 323.628906 502.589844 326.746094 L 502.589844 352.941406 L 500.609375 352.941406 Z M 497.648438 331.589844 L 500.652344 331.402344 L 507.570312 331.402344 L 507.570312 333.132812 L 497.648438 333.132812 Z M 497.648438 331.589844 "/>
<path fill-rule="nonzero" fill="rgb(6.307983%, 5.787659%, 5.090332%)" fill-opacity="1" d="M 505.9375 320.636719 C 501.945312 320.636719 501.109375 323.886719 501.109375 326.613281 L 501.109375 330.902344 L 502.089844 330.902344 L 502.089844 326.746094 C 502.089844 322.296875 504.203125 321.363281 505.972656 321.363281 C 506.730469 321.363281 507.503906 321.511719 508.234375 321.796875 L 508.453125 321.144531 C 507.601562 320.820312 506.703125 320.636719 505.9375 320.636719 M 498.148438 332.632812 L 500.109375 332.632812 L 500.109375 331.933594 L 498.148438 332.058594 Z M 501.109375 332.632812 L 502.089844 332.632812 L 502.089844 331.902344 L 501.109375 331.902344 Z M 503.089844 332.632812 L 507.070312 332.632812 L 507.070312 331.902344 L 503.089844 331.902344 Z M 501.109375 352.441406 L 502.089844 352.441406 L 502.089844 333.632812 L 501.109375 333.632812 Z M 503.089844 353.441406 L 500.109375 353.441406 L 500.109375 333.632812 L 497.148438 333.632812 L 497.148438 331.121094 L 500.109375 330.933594 L 500.109375 326.613281 C 500.109375 322.113281 502.179688 319.636719 505.9375 319.636719 C 506.964844 319.636719 508.183594 319.914062 509.28125 320.40625 L 509.695312 320.589844 L 508.828125 323.175781 L 508.316406 322.921875 C 507.570312 322.558594 506.761719 322.363281 505.972656 322.363281 C 505.257812 322.363281 503.089844 322.363281 503.089844 326.746094 L 503.089844 330.902344 L 508.070312 330.902344 L 508.070312 333.632812 L 503.089844 333.632812 Z M 503.089844 353.441406 "/>
<path fill-rule="nonzero" fill="rgb(6.307983%, 5.787659%, 5.090332%)" fill-opacity="1" d="M 528.226562 342.210938 C 528.226562 336.542969 524.988281 332.613281 520.636719 332.613281 C 516.285156 332.613281 513.046875 336.542969 513.046875 342.210938 C 513.046875 347.878906 516.285156 351.730469 520.636719 351.730469 C 524.988281 351.730469 528.226562 347.878906 528.226562 342.210938 M 510.964844 342.210938 C 510.964844 335.007812 515.460938 330.863281 520.636719 330.863281 C 525.8125 330.863281 530.304688 335.007812 530.304688 342.210938 C 530.304688 349.335938 525.8125 353.480469 520.636719 353.480469 C 515.460938 353.480469 510.964844 349.335938 510.964844 342.210938 "/>
<path fill-rule="nonzero" fill="rgb(6.307983%, 5.787659%, 5.090332%)" fill-opacity="1" d="M 520.636719 333.109375 C 516.527344 333.109375 513.546875 336.9375 513.546875 342.210938 C 513.546875 347.523438 516.460938 351.230469 520.636719 351.230469 C 524.8125 351.230469 527.726562 347.523438 527.726562 342.210938 C 527.726562 336.9375 524.746094 333.109375 520.636719 333.109375 M 520.636719 352.230469 C 515.949219 352.230469 512.546875 348.015625 512.546875 342.210938 C 512.546875 336.359375 515.949219 332.113281 520.636719 332.113281 C 525.324219 332.113281 528.726562 336.359375 528.726562 342.210938 C 528.726562 348.015625 525.324219 352.230469 520.636719 352.230469 M 520.636719 331.363281 C 516.21875 331.363281 511.464844 334.757812 511.464844 342.210938 C 511.464844 349.609375 516.21875 352.980469 520.636719 352.980469 C 525.054688 352.980469 529.808594 349.609375 529.808594 342.210938 C 529.808594 334.757812 525.054688 331.363281 520.636719 331.363281 M 520.636719 353.980469 C 513.960938 353.980469 510.464844 348.058594 510.464844 342.210938 C 510.464844 334.070312 515.738281 330.363281 520.636719 330.363281 C 525.535156 330.363281 530.808594 334.070312 530.808594 342.210938 C 530.808594 348.058594 527.3125 353.980469 520.636719 353.980469 "/>
<path fill-rule="nonzero" fill="rgb(6.307983%, 5.787659%, 5.090332%)" fill-opacity="1" d="M 554.882812 345.546875 L 556.273438 337.796875 C 555.191406 336.121094 554.316406 335.59375 552.945312 335.59375 C 548.917969 335.59375 546.433594 340.140625 546.433594 343.933594 C 546.433594 347.328125 548.039062 348.554688 550.03125 348.554688 C 551.484375 348.554688 553.085938 347.621094 554.882812 345.546875 M 536.027344 343.863281 C 536.027344 332.175781 544.394531 324.546875 553.851562 324.546875 C 562.515625 324.546875 567.917969 330.238281 567.917969 338.785156 C 567.917969 346.398438 563.386719 350.445312 559.664062 350.445312 C 557.300781 350.445312 555.546875 349.351562 555.332031 347.039062 L 555.242188 347.039062 C 553.671875 348.75 551.8125 350.160156 549.777344 350.160156 C 546.988281 350.160156 544.648438 348.105469 544.648438 344.058594 C 544.648438 339.691406 547.722656 333.976562 553 333.976562 C 554.597656 333.976562 555.84375 334.6875 556.71875 336.140625 L 556.808594 336.140625 L 557.207031 334.335938 L 558.722656 334.335938 L 557.132812 342.785156 C 556.113281 346.886719 557.0625 348.851562 559.824219 348.851562 C 562.679688 348.851562 566.230469 345.234375 566.230469 338.882812 C 566.230469 331.167969 561.476562 326.136719 553.707031 326.136719 C 545.527344 326.136719 537.75 333.082031 537.75 343.761719 C 537.75 352.484375 543.222656 357.882812 551.238281 357.882812 C 554.199219 357.882812 556.652344 357.003906 558.769531 355.703125 L 559.492188 357.085938 C 556.957031 358.679688 554.164062 359.472656 551.097656 359.472656 C 542.441406 359.472656 536.027344 353.765625 536.027344 343.863281 "/>
<path fill-rule="nonzero" fill="rgb(6.307983%, 5.787659%, 5.090332%)" fill-opacity="1" d="M 552.945312 336.09375 C 549.019531 336.09375 546.929688 340.648438 546.929688 343.933594 C 546.929688 345.816406 547.46875 348.054688 550.03125 348.054688 C 551.347656 348.054688 552.824219 347.136719 554.417969 345.324219 L 555.746094 337.902344 C 554.726562 336.375 553.996094 336.09375 552.945312 336.09375 M 550.03125 349.054688 C 548.796875 349.054688 545.929688 348.554688 545.929688 343.933594 C 545.929688 339.664062 548.75 335.09375 552.945312 335.09375 C 554.535156 335.09375 555.550781 335.753906 556.695312 337.527344 L 556.800781 337.691406 L 555.351562 345.773438 L 555.261719 345.875 C 553.410156 348.015625 551.699219 349.054688 550.03125 349.054688 M 553.851562 325.046875 C 545.453125 325.046875 536.527344 331.640625 536.527344 343.863281 C 536.527344 353.042969 542.246094 358.972656 551.097656 358.972656 C 553.9375 358.972656 556.472656 358.296875 558.832031 356.902344 L 558.570312 356.402344 C 556.246094 357.734375 553.839844 358.382812 551.238281 358.382812 C 542.742188 358.382812 537.25 352.644531 537.25 343.765625 C 537.25 332.417969 545.617188 325.636719 553.707031 325.636719 C 561.621094 325.636719 566.730469 330.835938 566.730469 338.882812 C 566.730469 345.347656 563.148438 349.351562 559.824219 349.351562 C 558.542969 349.351562 557.585938 348.957031 556.976562 348.179688 C 556.109375 347.066406 556.003906 345.265625 556.648438 342.664062 L 558.121094 334.835938 L 557.609375 334.835938 L 557.214844 336.640625 L 556.527344 336.640625 L 556.292969 336.398438 C 555.511719 335.105469 554.433594 334.476562 553 334.476562 C 547.941406 334.476562 545.148438 340.140625 545.148438 344.058594 C 545.148438 347.460938 546.964844 349.660156 549.777344 349.660156 C 551.386719 349.660156 553.050781 348.691406 554.871094 346.699219 L 555.019531 346.539062 L 555.695312 346.539062 L 555.828125 346.992188 C 556.070312 349.5625 558.335938 349.945312 559.664062 349.945312 C 563.390625 349.945312 567.417969 345.679688 567.417969 338.785156 C 567.417969 330.4375 562.089844 325.046875 553.851562 325.046875 M 551.097656 359.972656 C 541.636719 359.972656 535.527344 353.648438 535.527344 343.863281 C 535.527344 332.566406 543.402344 324.046875 553.851562 324.046875 C 562.699219 324.046875 568.414062 329.832031 568.414062 338.785156 C 568.414062 346.398438 563.964844 350.945312 559.664062 350.945312 C 557.242188 350.945312 555.558594 349.863281 555.007812 348.003906 C 553.207031 349.789062 551.492188 350.660156 549.777344 350.660156 C 546.972656 350.660156 544.148438 348.617188 544.148438 344.058594 C 544.148438 339.621094 547.222656 333.476562 553 333.476562 C 554.441406 333.476562 555.628906 334.003906 556.539062 335.042969 L 556.804688 333.835938 L 559.324219 333.835938 L 557.625 342.878906 C 557.058594 345.15625 557.105469 346.722656 557.761719 347.5625 C 558.175781 348.09375 558.851562 348.351562 559.824219 348.351562 C 562.300781 348.351562 565.730469 345.0625 565.730469 338.882812 C 565.730469 331.328125 561.125 326.636719 553.707031 326.636719 C 546.109375 326.636719 538.25 333.042969 538.25 343.765625 C 538.25 352.039062 543.347656 357.382812 551.238281 357.382812 C 553.824219 357.382812 556.199219 356.695312 558.507812 355.277344 L 558.964844 355 L 560.148438 357.265625 L 559.757812 357.507812 C 557.160156 359.144531 554.246094 359.972656 551.097656 359.972656 "/>
<path fill-rule="nonzero" fill="rgb(6.307983%, 5.787659%, 5.090332%)" fill-opacity="1" d="M 587.824219 348.292969 L 587.824219 340.964844 C 578.976562 341.988281 575.957031 344.042969 575.957031 347.476562 C 575.957031 350.566406 578.046875 351.757812 580.523438 351.757812 C 582.988281 351.757812 585.160156 350.5625 587.824219 348.292969 M 573.929688 347.582031 C 573.929688 342.792969 578.246094 340.515625 587.824219 339.457031 C 587.890625 336.148438 586.980469 332.605469 582.746094 332.605469 C 579.84375 332.605469 577.332031 334.039062 575.886719 335.132812 L 574.96875 333.664062 C 576.496094 332.585938 579.480469 330.863281 582.980469 330.863281 C 588.085938 330.863281 589.808594 334.570312 589.808594 339.179688 L 589.808594 352.941406 L 588.128906 352.941406 L 587.914062 350.140625 L 587.816406 350.140625 C 585.617188 351.917969 583 353.480469 580.171875 353.480469 C 576.765625 353.480469 573.929688 351.621094 573.929688 347.582031 "/>
<path fill-rule="nonzero" fill="rgb(6.307983%, 5.787659%, 5.090332%)" fill-opacity="1" d="M 587.324219 341.527344 C 577.789062 342.714844 576.457031 345.085938 576.457031 347.476562 C 576.457031 350.765625 579.003906 351.257812 580.523438 351.257812 C 582.644531 351.257812 584.625 350.328125 587.324219 348.0625 Z M 580.523438 352.253906 C 577.351562 352.253906 575.457031 350.46875 575.457031 347.476562 C 575.457031 343.511719 579.023438 341.480469 587.765625 340.46875 L 588.324219 340.402344 L 588.324219 348.527344 L 588.148438 348.675781 C 585.160156 351.21875 582.953125 352.253906 580.523438 352.253906 M 582.746094 332.101562 C 584.355469 332.101562 585.644531 332.585938 586.578125 333.539062 C 587.789062 334.773438 588.378906 336.769531 588.324219 339.464844 L 588.316406 339.90625 L 587.878906 339.953125 C 578.328125 341.011719 574.429688 343.21875 574.429688 347.582031 C 574.429688 350.960938 576.578125 352.980469 580.171875 352.980469 C 582.417969 352.980469 584.816406 351.925781 587.503906 349.753906 L 587.640625 349.640625 L 588.28125 349.640625 L 588.414062 350.105469 L 588.59375 352.441406 L 589.308594 352.441406 L 589.308594 339.179688 C 589.308594 333.992188 587.179688 331.363281 582.980469 331.363281 C 579.878906 331.363281 577.179688 332.789062 575.644531 333.804688 L 576.023438 334.414062 C 577.433594 333.429688 579.867188 332.101562 582.746094 332.101562 M 580.171875 353.980469 C 576.011719 353.980469 573.429688 351.527344 573.429688 347.582031 C 573.429688 341.519531 580.050781 339.851562 587.328125 339.007812 C 587.308594 336.816406 586.816406 335.210938 585.863281 334.238281 C 585.125 333.484375 584.078125 333.101562 582.746094 333.101562 C 579.828125 333.101562 577.386719 334.625 576.1875 335.53125 L 575.75 335.863281 L 574.296875 333.527344 L 574.683594 333.253906 C 576.210938 332.175781 579.320312 330.363281 582.980469 330.363281 C 587.707031 330.363281 590.304688 333.496094 590.304688 339.179688 L 590.304688 353.441406 L 587.667969 353.441406 L 587.480469 351.039062 C 584.863281 353.015625 582.46875 353.980469 580.171875 353.980469 "/>
<path fill-rule="nonzero" fill="rgb(6.307983%, 5.787659%, 5.090332%)" fill-opacity="1" d="M 598.621094 346.992188 L 598.621094 333.132812 L 595.257812 333.132812 L 595.257812 331.589844 L 598.667969 331.402344 L 598.917969 325.167969 L 600.605469 325.167969 L 600.605469 331.402344 L 606.847656 331.402344 L 606.847656 333.132812 L 600.605469 333.132812 L 600.605469 347.140625 C 600.605469 349.890625 601.296875 351.746094 604.265625 351.746094 C 605.066406 351.746094 606.1875 351.40625 606.964844 351.066406 L 607.484375 352.671875 C 606.238281 353.113281 604.859375 353.480469 603.96875 353.480469 C 599.832031 353.480469 598.621094 350.847656 598.621094 346.992188 "/>
<path fill-rule="nonzero" fill="rgb(6.307983%, 5.787659%, 5.090332%)" fill-opacity="1" d="M 595.757812 332.632812 L 599.121094 332.632812 L 599.121094 346.992188 C 599.121094 351.1875 600.570312 352.980469 603.96875 352.980469 C 604.613281 352.980469 605.648438 352.753906 606.859375 352.355469 L 606.652344 351.730469 C 605.925781 352 605.003906 352.246094 604.265625 352.246094 C 600.578125 352.246094 600.105469 349.519531 600.105469 347.140625 L 600.105469 332.632812 L 606.347656 332.632812 L 606.347656 331.902344 L 600.105469 331.902344 L 600.105469 325.667969 L 599.398438 325.667969 L 599.152344 331.875 L 595.757812 332.0625 Z M 603.96875 353.976562 C 600.035156 353.976562 598.121094 351.695312 598.121094 346.992188 L 598.121094 333.632812 L 594.757812 333.632812 L 594.757812 331.117188 L 598.1875 330.925781 L 598.4375 324.667969 L 601.105469 324.667969 L 601.105469 330.902344 L 607.347656 330.902344 L 607.347656 333.632812 L 601.105469 333.632812 L 601.105469 347.140625 C 601.105469 350.132812 601.960938 351.246094 604.265625 351.246094 C 604.984375 351.246094 606.039062 350.925781 606.765625 350.609375 L 607.269531 350.386719 L 608.109375 352.980469 L 607.652344 353.144531 C 606.765625 353.457031 605.109375 353.976562 603.96875 353.976562 "/>
<path fill-rule="nonzero" fill="rgb(6.307983%, 5.787659%, 5.090332%)" fill-opacity="1" d="M 629.078125 341.859375 C 629.078125 336.566406 627.191406 332.621094 622.222656 332.621094 C 620.085938 332.621094 617.816406 333.878906 615.214844 336.175781 L 615.214844 348.949219 C 617.644531 350.96875 619.925781 351.722656 621.558594 351.722656 C 625.9375 351.722656 629.078125 347.699219 629.078125 341.859375 M 613.234375 331.402344 L 614.910156 331.402344 L 615.125 334.113281 L 615.222656 334.113281 C 617.328125 332.421875 619.890625 330.863281 622.535156 330.863281 C 628.3125 330.863281 631.15625 335.1875 631.15625 341.851562 C 631.15625 349.164062 626.746094 353.480469 621.667969 353.480469 C 619.621094 353.480469 617.429688 352.507812 615.191406 350.832031 L 615.214844 354.804688 L 615.214844 362.691406 L 613.234375 362.691406 Z M 613.234375 331.402344 "/>
<path fill-rule="nonzero" fill="rgb(6.307983%, 5.787659%, 5.090332%)" fill-opacity="1" d="M 615.714844 348.710938 C 617.695312 350.308594 619.816406 351.222656 621.558594 351.222656 C 625.691406 351.222656 628.578125 347.371094 628.578125 341.863281 C 628.578125 337.875 627.472656 333.121094 622.222656 333.121094 C 620.355469 333.121094 618.28125 334.164062 615.714844 336.402344 Z M 621.558594 352.222656 C 620.367188 352.222656 617.921875 351.847656 614.898438 349.332031 L 614.714844 349.183594 L 614.714844 335.949219 L 614.886719 335.800781 C 617.726562 333.292969 620.058594 332.125 622.222656 332.125 C 626.964844 332.125 629.574219 335.582031 629.574219 341.863281 C 629.574219 347.960938 626.277344 352.222656 621.558594 352.222656 M 613.734375 362.191406 L 614.714844 362.191406 L 614.683594 349.828125 L 615.488281 350.433594 C 617.75 352.121094 619.828125 352.980469 621.667969 352.980469 C 627.566406 352.980469 630.65625 347.382812 630.65625 341.851562 C 630.65625 337.9375 629.601562 331.363281 622.535156 331.363281 C 620.457031 331.363281 618.167969 332.390625 615.535156 334.5 L 615.402344 334.613281 L 614.761719 334.613281 L 614.628906 334.152344 L 614.449219 331.902344 L 613.734375 331.902344 Z M 615.714844 363.191406 L 612.734375 363.191406 L 612.734375 330.902344 L 615.371094 330.902344 L 615.554688 333.21875 C 618.109375 331.300781 620.398438 330.363281 622.535156 330.363281 C 628.332031 330.363281 631.65625 334.550781 631.65625 341.851562 C 631.65625 349.8125 626.632812 353.980469 621.667969 353.980469 C 619.835938 353.980469 617.832031 353.25 615.695312 351.804688 L 615.714844 354.804688 Z M 615.714844 363.191406 "/>
<path fill-rule="nonzero" fill="rgb(6.307983%, 5.787659%, 5.090332%)" fill-opacity="1" d="M 638.75 331.402344 L 640.425781 331.402344 L 640.640625 335.421875 L 640.742188 335.421875 C 642.199219 332.773438 644.308594 330.863281 646.867188 330.863281 C 647.652344 330.863281 648.292969 330.964844 649.003906 331.3125 L 648.554688 333.105469 C 647.828125 332.847656 647.433594 332.746094 646.605469 332.746094 C 644.671875 332.746094 642.375 334.21875 640.730469 338.292969 L 640.730469 352.941406 L 638.75 352.941406 Z M 638.75 331.402344 "/>
<path fill-rule="nonzero" fill="rgb(6.307983%, 5.787659%, 5.090332%)" fill-opacity="1" d="M 639.25 352.441406 L 640.230469 352.441406 L 640.269531 338.105469 C 642.398438 332.816406 645.410156 332.246094 646.605469 332.246094 C 647.277344 332.246094 647.707031 332.3125 648.199219 332.460938 L 648.414062 331.601562 C 647.964844 331.433594 647.496094 331.363281 646.867188 331.363281 C 643.976562 331.363281 642.0625 334.054688 641.179688 335.664062 L 641.035156 335.921875 L 640.269531 335.921875 L 640.144531 335.449219 L 639.953125 331.902344 L 639.25 331.902344 Z M 641.230469 353.441406 L 638.25 353.441406 L 638.25 330.902344 L 640.898438 330.902344 L 641.0625 333.949219 C 642.675781 331.625 644.699219 330.363281 646.867188 330.363281 C 647.820312 330.363281 648.503906 330.507812 649.222656 330.863281 L 649.585938 331.042969 L 648.902344 333.761719 L 648.386719 333.578125 C 647.683594 333.324219 647.347656 333.246094 646.605469 333.246094 C 644.527344 333.246094 642.570312 335.121094 641.230469 338.390625 Z M 641.230469 353.441406 "/>
<path fill-rule="nonzero" fill="rgb(6.307983%, 5.787659%, 5.090332%)" fill-opacity="1" d="M 669.085938 342.210938 C 669.085938 336.542969 665.847656 332.613281 661.496094 332.613281 C 657.144531 332.613281 653.90625 336.542969 653.90625 342.210938 C 653.90625 347.878906 657.144531 351.730469 661.496094 351.730469 C 665.847656 351.730469 669.085938 347.878906 669.085938 342.210938 M 651.824219 342.210938 C 651.824219 335.007812 656.320312 330.863281 661.496094 330.863281 C 666.671875 330.863281 671.164062 335.007812 671.164062 342.210938 C 671.164062 349.335938 666.671875 353.480469 661.496094 353.480469 C 656.320312 353.480469 651.824219 349.335938 651.824219 342.210938 "/>
<path fill-rule="nonzero" fill="rgb(6.307983%, 5.787659%, 5.090332%)" fill-opacity="1" d="M 661.496094 333.109375 C 657.386719 333.109375 654.402344 336.9375 654.402344 342.210938 C 654.402344 347.523438 657.320312 351.230469 661.496094 351.230469 C 665.671875 351.230469 668.585938 347.523438 668.585938 342.210938 C 668.585938 336.9375 665.605469 333.109375 661.496094 333.109375 M 661.496094 352.230469 C 656.808594 352.230469 653.40625 348.015625 653.40625 342.210938 C 653.40625 336.359375 656.808594 332.113281 661.496094 332.113281 C 666.183594 332.113281 669.585938 336.359375 669.585938 342.210938 C 669.585938 348.015625 666.183594 352.230469 661.496094 352.230469 M 661.496094 331.363281 C 657.078125 331.363281 652.324219 334.757812 652.324219 342.210938 C 652.324219 349.609375 657.078125 352.980469 661.496094 352.980469 C 665.914062 352.980469 670.667969 349.609375 670.667969 342.210938 C 670.667969 334.757812 665.914062 331.363281 661.496094 331.363281 M 661.496094 353.980469 C 654.820312 353.980469 651.324219 348.058594 651.324219 342.210938 C 651.324219 334.070312 656.597656 330.363281 661.496094 330.363281 C 666.394531 330.363281 671.664062 334.070312 671.664062 342.210938 C 671.664062 348.058594 668.171875 353.980469 661.496094 353.980469 "/>
<path fill-rule="nonzero" fill="rgb(6.307983%, 5.787659%, 5.090332%)" fill-opacity="1" d="M 678.707031 350.050781 L 678.707031 320.675781 L 680.6875 320.675781 L 680.6875 350.324219 C 680.6875 351.28125 681.082031 351.730469 681.621094 351.730469 C 681.8125 351.730469 681.988281 351.730469 682.429688 351.640625 L 682.761719 353.253906 C 682.355469 353.371094 681.988281 353.480469 681.335938 353.480469 C 679.601562 353.480469 678.707031 352.410156 678.707031 350.050781 "/>
<path fill-rule="nonzero" fill="rgb(6.307983%, 5.787659%, 5.090332%)" fill-opacity="1" d="M 679.207031 321.171875 L 679.207031 350.050781 C 679.207031 352.644531 680.34375 352.980469 681.335938 352.980469 C 681.691406 352.980469 681.945312 352.945312 682.175781 352.894531 L 682.035156 352.210938 C 681.863281 352.230469 681.742188 352.230469 681.621094 352.230469 C 680.929688 352.230469 680.191406 351.726562 680.191406 350.320312 L 680.191406 321.171875 Z M 681.335938 353.976562 C 679.90625 353.976562 678.207031 353.296875 678.207031 350.050781 L 678.207031 320.171875 L 681.1875 320.171875 L 681.1875 350.320312 C 681.1875 350.59375 681.230469 351.230469 681.621094 351.230469 C 681.792969 351.230469 681.9375 351.230469 682.332031 351.148438 L 682.820312 351.050781 L 683.34375 353.605469 L 682.902344 353.734375 C 682.488281 353.855469 682.0625 353.976562 681.335938 353.976562 "/>
<path fill-rule="nonzero" fill="rgb(6.307983%, 5.787659%, 5.090332%)" fill-opacity="1" d="M 690.457031 350.050781 L 690.457031 320.675781 L 692.4375 320.675781 L 692.4375 350.324219 C 692.4375 351.28125 692.832031 351.730469 693.371094 351.730469 C 693.558594 351.730469 693.738281 351.730469 694.179688 351.640625 L 694.511719 353.253906 C 694.105469 353.371094 693.738281 353.480469 693.085938 353.480469 C 691.351562 353.480469 690.457031 352.410156 690.457031 350.050781 "/>
<path fill-rule="nonzero" fill="rgb(6.307983%, 5.787659%, 5.090332%)" fill-opacity="1" d="M 690.957031 321.171875 L 690.957031 350.050781 C 690.957031 352.644531 692.09375 352.980469 693.085938 352.980469 C 693.441406 352.980469 693.695312 352.945312 693.925781 352.894531 L 693.785156 352.210938 C 693.609375 352.230469 693.492188 352.230469 693.371094 352.230469 C 692.679688 352.230469 691.9375 351.726562 691.9375 350.320312 L 691.9375 321.171875 Z M 693.085938 353.976562 C 691.65625 353.976562 689.957031 353.296875 689.957031 350.050781 L 689.957031 320.171875 L 692.9375 320.171875 L 692.9375 350.320312 C 692.9375 350.59375 692.980469 351.230469 693.371094 351.230469 C 693.542969 351.230469 693.6875 351.230469 694.078125 351.148438 L 694.570312 351.050781 L 695.09375 353.605469 L 694.652344 353.734375 C 694.238281 353.855469 693.8125 353.976562 693.085938 353.976562 "/>
<path fill-rule="nonzero" fill="rgb(6.307983%, 5.787659%, 5.090332%)" fill-opacity="1" d="M 716.164062 340.8125 C 716.164062 335.3125 713.667969 332.578125 709.804688 332.578125 C 706.160156 332.578125 702.871094 335.660156 702.421875 340.8125 Z M 700.394531 342.210938 C 700.394531 335.1875 704.960938 330.863281 709.789062 330.863281 C 714.890625 330.863281 718.03125 334.496094 718.03125 340.828125 C 718.03125 341.367188 718.011719 341.90625 717.917969 342.445312 L 702.429688 342.445312 C 702.503906 347.878906 705.6875 351.765625 710.542969 351.765625 C 712.871094 351.765625 714.710938 350.992188 716.324219 349.855469 L 717.140625 351.363281 C 715.449219 352.417969 713.511719 353.480469 710.351562 353.480469 C 704.851562 353.480469 700.394531 349.253906 700.394531 342.210938 "/>
<path fill-rule="nonzero" fill="rgb(6.307983%, 5.787659%, 5.090332%)" fill-opacity="1" d="M 702.980469 340.3125 L 715.65625 340.3125 C 715.519531 335.640625 713.453125 333.078125 709.804688 333.078125 C 706.296875 333.078125 703.546875 336.023438 702.980469 340.3125 M 716.664062 341.3125 L 701.875 341.3125 L 701.921875 340.769531 C 702.371094 335.652344 705.613281 332.078125 709.804688 332.078125 C 714.164062 332.078125 716.664062 335.261719 716.664062 340.8125 Z M 709.785156 331.363281 C 705.476562 331.363281 700.894531 335.164062 700.894531 342.210938 C 700.894531 348.550781 704.78125 352.980469 710.351562 352.980469 C 713.117188 352.980469 714.917969 352.125 716.476562 351.183594 L 716.148438 350.578125 C 714.367188 351.726562 712.574219 352.265625 710.539062 352.265625 C 705.46875 352.265625 702.007812 348.320312 701.929688 342.453125 L 701.921875 341.945312 L 717.484375 341.945312 C 717.523438 341.554688 717.53125 341.171875 717.53125 340.828125 C 717.53125 334.8125 714.707031 331.363281 709.785156 331.363281 M 710.351562 353.980469 C 704.195312 353.980469 699.894531 349.140625 699.894531 342.210938 C 699.894531 334.515625 704.992188 330.363281 709.785156 330.363281 C 715.261719 330.363281 718.53125 334.277344 718.53125 340.828125 C 718.53125 341.332031 718.515625 341.929688 718.410156 342.53125 L 718.335938 342.945312 L 702.945312 342.945312 C 703.199219 347.945312 706.203125 351.265625 710.539062 351.265625 C 712.535156 351.265625 714.28125 350.6875 716.039062 349.449219 L 716.496094 349.121094 L 717.804688 351.535156 L 717.40625 351.785156 C 715.628906 352.894531 713.617188 353.980469 710.351562 353.980469 "/>
<path fill-rule="nonzero" fill="rgb(6.307983%, 5.787659%, 5.090332%)" fill-opacity="1" d="M 724.988281 331.402344 L 726.664062 331.402344 L 726.878906 335.421875 L 726.980469 335.421875 C 728.4375 332.773438 730.546875 330.863281 733.105469 330.863281 C 733.890625 330.863281 734.53125 330.964844 735.242188 331.3125 L 734.792969 333.105469 C 734.066406 332.847656 733.671875 332.746094 732.84375 332.746094 C 730.910156 332.746094 728.613281 334.21875 726.96875 338.292969 L 726.96875 352.941406 L 724.988281 352.941406 Z M 724.988281 331.402344 "/>
<path fill-rule="nonzero" fill="rgb(6.307983%, 5.787659%, 5.090332%)" fill-opacity="1" d="M 725.488281 352.441406 L 726.46875 352.441406 L 726.507812 338.105469 C 728.636719 332.816406 731.648438 332.246094 732.84375 332.246094 C 733.515625 332.246094 733.941406 332.3125 734.4375 332.460938 L 734.652344 331.601562 C 734.199219 331.433594 733.734375 331.363281 733.105469 331.363281 C 730.214844 331.363281 728.300781 334.054688 727.417969 335.664062 L 727.273438 335.921875 L 726.503906 335.921875 L 726.382812 335.449219 L 726.191406 331.902344 L 725.488281 331.902344 Z M 727.46875 353.441406 L 724.488281 353.441406 L 724.488281 330.902344 L 727.136719 330.902344 L 727.300781 333.949219 C 728.914062 331.625 730.9375 330.363281 733.105469 330.363281 C 734.058594 330.363281 734.742188 330.507812 735.460938 330.863281 L 735.824219 331.042969 L 735.140625 333.761719 L 734.621094 333.578125 C 733.921875 333.324219 733.585938 333.246094 732.84375 333.246094 C 730.765625 333.246094 728.808594 335.121094 727.46875 338.390625 Z M 727.46875 353.441406 "/>
<path fill-rule="nonzero" fill="rgb(6.307983%, 5.787659%, 5.090332%)" fill-opacity="1" d="M 737.453125 351.476562 C 737.453125 350.167969 738.367188 349.398438 739.355469 349.398438 C 740.34375 349.398438 741.257812 350.167969 741.257812 351.476562 C 741.257812 352.707031 740.34375 353.480469 739.355469 353.480469 C 738.367188 353.480469 737.453125 352.707031 737.453125 351.476562 "/>
<path fill-rule="nonzero" fill="rgb(6.307983%, 5.787659%, 5.090332%)" fill-opacity="1" d="M 739.355469 349.898438 C 738.660156 349.898438 737.953125 350.441406 737.953125 351.476562 C 737.953125 353.429688 740.757812 353.425781 740.757812 351.476562 C 740.757812 350.441406 740.050781 349.898438 739.355469 349.898438 M 739.355469 353.980469 C 738.175781 353.980469 736.953125 353.042969 736.953125 351.476562 C 736.953125 349.800781 738.191406 348.898438 739.355469 348.898438 C 740.519531 348.898438 741.757812 349.800781 741.757812 351.476562 C 741.757812 353.042969 740.535156 353.980469 739.355469 353.980469 "/>
<path fill-rule="nonzero" fill="rgb(6.307983%, 5.787659%, 5.090332%)" fill-opacity="1" d="M 747.167969 342.210938 C 747.167969 335.007812 751.769531 330.863281 757.007812 330.863281 C 759.941406 330.863281 761.855469 332.164062 763.3125 333.519531 L 762.148438 334.898438 C 760.757812 333.609375 759.152344 332.613281 757.054688 332.613281 C 752.648438 332.613281 749.246094 336.542969 749.246094 342.210938 C 749.246094 347.878906 752.34375 351.730469 757.027344 351.730469 C 759.332031 351.730469 761.316406 350.617188 762.796875 349.246094 L 763.816406 350.636719 C 761.980469 352.285156 759.671875 353.480469 756.9375 353.480469 C 751.375 353.480469 747.167969 349.335938 747.167969 342.210938 "/>
<path fill-rule="nonzero" fill="rgb(6.307983%, 5.787659%, 5.090332%)" fill-opacity="1" d="M 757.007812 331.363281 C 752.507812 331.363281 747.667969 334.757812 747.667969 342.210938 C 747.667969 348.75 751.304688 352.980469 756.9375 352.980469 C 759.140625 352.980469 761.226562 352.164062 763.144531 350.558594 L 762.714844 349.980469 C 761.410156 351.082031 759.464844 352.230469 757.027344 352.230469 C 752.074219 352.230469 748.746094 348.203125 748.746094 342.210938 C 748.746094 336.359375 752.242188 332.113281 757.054688 332.113281 C 759.3125 332.113281 760.972656 333.210938 762.101562 334.183594 L 762.621094 333.566406 C 761.371094 332.480469 759.625 331.363281 757.007812 331.363281 M 756.9375 353.980469 C 750.792969 353.980469 746.667969 349.25 746.667969 342.210938 C 746.667969 336.324219 750.21875 330.363281 757.007812 330.363281 C 760.230469 330.363281 762.253906 331.855469 763.652344 333.152344 L 764.003906 333.476562 L 762.191406 335.625 L 761.808594 335.265625 C 760.203125 333.777344 758.738281 333.109375 757.054688 333.109375 C 752.820312 333.109375 749.746094 336.9375 749.746094 342.210938 C 749.746094 347.605469 752.671875 351.230469 757.027344 351.230469 C 759.417969 351.230469 761.296875 349.949219 762.457031 348.878906 L 762.867188 348.496094 L 764.488281 350.703125 L 764.152344 351.007812 C 761.953125 352.980469 759.527344 353.980469 756.9375 353.980469 "/>
<path fill-rule="nonzero" fill="rgb(6.307983%, 5.787659%, 5.090332%)" fill-opacity="1" d="M 784.917969 342.210938 C 784.917969 336.542969 781.679688 332.613281 777.332031 332.613281 C 772.976562 332.613281 769.738281 336.542969 769.738281 342.210938 C 769.738281 347.878906 772.976562 351.730469 777.332031 351.730469 C 781.679688 351.730469 784.917969 347.878906 784.917969 342.210938 M 767.660156 342.210938 C 767.660156 335.007812 772.152344 330.863281 777.332031 330.863281 C 782.503906 330.863281 787 335.007812 787 342.210938 C 787 349.335938 782.503906 353.480469 777.332031 353.480469 C 772.152344 353.480469 767.660156 349.335938 767.660156 342.210938 "/>
<path fill-rule="nonzero" fill="rgb(6.307983%, 5.787659%, 5.090332%)" fill-opacity="1" d="M 777.332031 333.109375 C 773.222656 333.109375 770.238281 336.9375 770.238281 342.210938 C 770.238281 347.523438 773.152344 351.230469 777.332031 351.230469 C 781.503906 351.230469 784.421875 347.523438 784.421875 342.210938 C 784.421875 336.9375 781.4375 333.109375 777.332031 333.109375 M 777.332031 352.230469 C 772.640625 352.230469 769.238281 348.015625 769.238281 342.210938 C 769.238281 336.359375 772.640625 332.113281 777.332031 332.113281 C 782.015625 332.113281 785.417969 336.359375 785.417969 342.210938 C 785.417969 348.015625 782.015625 352.230469 777.332031 352.230469 M 777.332031 331.363281 C 772.914062 331.363281 768.15625 334.757812 768.15625 342.210938 C 768.15625 349.609375 772.914062 352.980469 777.332031 352.980469 C 781.746094 352.980469 786.5 349.609375 786.5 342.210938 C 786.5 334.757812 781.746094 331.363281 777.332031 331.363281 M 777.332031 353.980469 C 770.652344 353.980469 767.160156 348.058594 767.160156 342.210938 C 767.160156 334.070312 772.429688 330.363281 777.332031 330.363281 C 782.226562 330.363281 787.5 334.070312 787.5 342.210938 C 787.5 348.058594 784.007812 353.980469 777.332031 353.980469 "/>
<path fill-rule="nonzero" fill="rgb(6.307983%, 5.787659%, 5.090332%)" fill-opacity="1" d="M 794.585938 331.402344 L 796.261719 331.402344 L 796.476562 334.746094 L 796.574219 334.746094 C 798.53125 332.550781 800.980469 330.863281 803.382812 330.863281 C 806.839844 330.863281 808.566406 332.601562 809.332031 335.257812 C 811.777344 332.566406 814.160156 330.863281 816.644531 330.863281 C 820.929688 330.863281 823.082031 333.566406 823.082031 339.125 L 823.082031 352.941406 L 821.101562 352.941406 L 821.101562 339.386719 C 821.101562 334.820312 819.578125 332.648438 816.277344 332.648438 C 814.25 332.648438 812.203125 333.992188 809.824219 336.695312 L 809.824219 352.941406 L 807.84375 352.941406 L 807.84375 339.386719 C 807.84375 334.820312 806.316406 332.648438 803.015625 332.648438 C 801.070312 332.648438 798.945312 333.992188 796.566406 336.695312 L 796.566406 352.941406 L 794.585938 352.941406 Z M 794.585938 331.402344 "/>
<path fill-rule="nonzero" fill="rgb(6.307983%, 5.787659%, 5.090332%)" fill-opacity="1" d="M 821.601562 352.441406 L 822.582031 352.441406 L 822.582031 339.125 C 822.582031 333.902344 820.640625 331.363281 816.644531 331.363281 C 814.527344 331.363281 812.324219 332.710938 809.703125 335.59375 L 809.101562 336.257812 L 808.851562 335.398438 C 808.058594 332.644531 806.320312 331.363281 803.386719 331.363281 C 801.371094 331.363281 799.082031 332.683594 796.949219 335.078125 L 796.800781 335.246094 L 796.105469 335.246094 L 795.976562 334.777344 L 795.792969 331.902344 L 795.085938 331.902344 L 795.085938 352.441406 L 796.066406 352.441406 L 796.066406 336.507812 L 796.191406 336.367188 C 798.6875 333.527344 800.921875 332.148438 803.015625 332.148438 C 806.601562 332.148438 808.34375 334.515625 808.34375 339.386719 L 808.34375 352.441406 L 809.324219 352.441406 L 809.324219 336.507812 L 809.449219 336.367188 C 811.980469 333.488281 814.152344 332.148438 816.277344 332.148438 C 819.859375 332.148438 821.601562 334.515625 821.601562 339.386719 Z M 823.582031 353.441406 L 820.601562 353.441406 L 820.601562 339.386719 C 820.601562 333.859375 818.289062 333.148438 816.277344 333.148438 C 814.492188 333.148438 812.597656 334.335938 810.324219 336.886719 L 810.324219 353.441406 L 807.34375 353.441406 L 807.34375 339.386719 C 807.34375 333.859375 805.03125 333.148438 803.015625 333.148438 C 801.257812 333.148438 799.308594 334.371094 797.066406 336.886719 L 797.066406 353.441406 L 794.085938 353.441406 L 794.085938 330.902344 L 796.730469 330.902344 L 796.90625 333.664062 C 799.039062 331.527344 801.3125 330.363281 803.386719 330.363281 C 806.4375 330.363281 808.503906 331.691406 809.539062 334.308594 C 812.121094 331.621094 814.390625 330.363281 816.644531 330.363281 C 821.25 330.363281 823.582031 333.3125 823.582031 339.125 Z M 823.582031 353.441406 "/>
<path fill-rule="nonzero" fill="rgb(13.729858%, 12.159729%, 12.548828%)" fill-opacity="1" d="M 527.019531 175.867188 C 525.703125 180.480469 523.632812 184.242188 520.8125 187.191406 C 517.957031 190.105469 514.320312 192.238281 509.867188 193.558594 C 505.441406 194.875 500.082031 195.53125 493.808594 195.53125 L 482.796875 195.53125 L 482.796875 124.964844 L 496.851562 124.964844 C 502.714844 124.964844 507.667969 125.65625 511.746094 127.035156 C 515.824219 128.414062 519.148438 130.515625 521.71875 133.339844 C 524.261719 136.195312 526.113281 139.738281 527.273438 144.003906 C 528.402344 148.300781 528.996094 153.316406 528.996094 159.121094 C 528.996094 165.675781 528.339844 171.257812 527.019531 175.867188 M 215.363281 198.082031 L 230.757812 156.324219 C 232.089844 152.78125 233.269531 149.554688 234.304688 146.636719 C 235.339844 143.71875 236.257812 140.929688 237.074219 138.273438 C 237.886719 135.613281 238.640625 133.007812 239.34375 130.464844 C 240.046875 127.914062 240.65625 125.277344 241.171875 122.542969 C 242.425781 128.007812 244.03125 133.671875 245.988281 139.546875 C 247.945312 145.414062 250.105469 151.710938 252.46875 158.429688 L 266.535156 198.082031 Z M 548.253906 140.207031 C 546.183594 134.90625 543.078125 130.359375 538.910156 126.628906 C 534.707031 122.894531 529.4375 120.011719 523.007812 118.035156 C 516.609375 116.058594 509.082031 115.054688 500.363281 115.054688 L 447.640625 115.054688 L 448.769531 123.929688 C 448.832031 123.898438 448.863281 123.898438 448.925781 123.929688 C 449.773438 123.992188 450.589844 124.054688 451.402344 124.179688 C 453.441406 124.496094 455.261719 125.152344 456.800781 126.15625 C 458.367188 127.191406 459.589844 128.605469 460.5 130.453125 C 461.410156 132.335938 461.847656 134.75 461.847656 137.792969 L 461.847656 239.285156 C 461.847656 242.546875 461.410156 245.121094 460.53125 247.09375 C 459.652344 249.039062 458.460938 250.546875 456.894531 251.578125 C 455.355469 252.613281 453.535156 253.304688 451.496094 253.648438 C 449.625 253.960938 447.632812 254.101562 445.53125 254.128906 L 423.597656 254.128906 L 423.597656 254.089844 L 416.914062 254.089844 C 413.6875 254.089844 410.601562 253.851562 407.664062 253.375 C 404.726562 252.902344 402.191406 251.933594 400.054688 250.460938 C 397.921875 248.996094 396.214844 246.882812 394.933594 244.132812 C 393.652344 241.382812 393.011719 237.730469 393.011719 233.179688 L 393.011719 72.859375 L 421.320312 72.859375 C 425.683594 72.859375 429.335938 73.496094 432.277344 74.78125 C 435.214844 76.058594 437.585938 77.789062 439.386719 79.96875 C 441.1875 82.152344 442.5625 84.691406 443.515625 87.582031 C 444.460938 90.476562 445.125 93.535156 445.503906 96.757812 L 446.035156 101.71875 L 462.007812 101.71875 L 460.585938 58.347656 L 296.566406 58.347656 L 295.144531 101.71875 L 311.269531 101.71875 L 311.785156 96.757812 C 312.164062 93.535156 312.804688 90.476562 313.707031 87.582031 C 314.609375 84.691406 315.984375 82.152344 317.832031 79.96875 C 319.683594 77.789062 322.050781 76.058594 324.945312 74.78125 C 327.835938 73.496094 331.417969 72.859375 335.6875 72.859375 L 363.566406 72.859375 L 363.566406 234.597656 C 363.566406 238.871094 362.925781 242.304688 361.644531 244.914062 C 360.367188 247.523438 358.636719 249.488281 356.453125 250.820312 C 354.269531 252.144531 351.734375 253.023438 348.84375 253.449219 C 345.949219 253.875 342.890625 254.089844 339.667969 254.089844 L 332.980469 254.089844 L 332.980469 254.128906 L 322.136719 254.128906 C 319.921875 254.128906 318 253.945312 316.378906 253.574219 C 314.753906 253.207031 313.3125 252.5625 312.058594 251.636719 C 310.800781 250.714844 309.714844 249.476562 308.792969 247.925781 C 307.867188 246.375 306.964844 244.417969 306.078125 242.054688 L 254.792969 101.71875 L 237.074219 101.71875 L 186.789062 236.40625 C 185.382812 240.023438 184.109375 242.980469 182.964844 245.265625 C 181.820312 247.554688 180.621094 249.367188 179.367188 250.695312 C 178.109375 252.023438 176.707031 252.929688 175.15625 253.410156 C 173.605469 253.890625 171.722656 254.128906 169.507812 254.128906 L 159.269531 254.128906 L 159.269531 263.433594 L 165.1875 263.433594 L 165.1875 263.652344 L 220.570312 263.652344 L 220.570312 254.128906 L 215.363281 254.128906 C 210.269531 254.128906 206.484375 253.242188 204.011719 251.46875 C 201.535156 249.699219 200.300781 246.890625 200.300781 243.050781 C 200.300781 241.796875 200.484375 240.304688 200.855469 238.570312 C 201.222656 236.832031 201.738281 235.078125 202.40625 233.304688 L 211.042969 209.492188 L 270.632812 209.492188 L 279.714844 234.855469 C 280.308594 236.554688 280.769531 238.066406 281.101562 239.398438 C 281.433594 240.726562 281.601562 242.019531 281.601562 243.273438 C 281.601562 250.511719 277.058594 254.128906 267.976562 254.128906 L 262.769531 254.128906 L 262.769531 263.652344 L 325.128906 263.652344 L 325.128906 263.621094 L 506.636719 263.621094 L 506.636719 254.128906 L 499.085938 254.128906 C 497.050781 254.101562 495.101562 253.964844 493.242188 253.710938 C 491.203125 253.398438 489.386719 252.773438 487.847656 251.832031 C 486.28125 250.890625 485.058594 249.511719 484.148438 247.628906 C 483.238281 245.777344 482.796875 243.332031 482.796875 240.320312 L 482.796875 205.320312 L 495.816406 205.320312 C 506.070312 205.320312 514.726562 204.03125 521.816406 201.429688 C 528.871094 198.859375 534.609375 195.378906 539.003906 191.015625 C 543.363281 186.6875 546.53125 181.671875 548.441406 176.027344 C 550.355469 170.347656 551.328125 164.453125 551.328125 158.304688 C 551.328125 151.59375 550.292969 145.539062 548.253906 140.207031 "/>
<path fill-rule="nonzero" fill="rgb(13.729858%, 12.159729%, 12.548828%)" fill-opacity="1" d="M 601.570312 218.632812 C 601.570312 212.730469 600.078125 209.78125 597.09375 209.78125 C 593.632812 209.78125 589.960938 213.1875 586.082031 220 C 582.203125 226.8125 579.335938 234.515625 577.476562 243.109375 L 573.269531 263.488281 L 562.835938 263.488281 L 572.234375 218.523438 C 572.667969 216.445312 572.886719 214.773438 572.886719 213.496094 C 572.886719 209.964844 569.917969 208.195312 563.984375 208.195312 L 563.054688 208.195312 L 564.089844 203.5 L 583.871094 203.5 L 581.519531 219.617188 L 582.667969 219.617188 C 585.65625 212.949219 588.605469 208.414062 591.519531 206.011719 C 594.433594 203.605469 597.820312 202.40625 601.679688 202.40625 C 607.800781 202.40625 610.859375 204.972656 610.859375 210.109375 C 610.859375 215.792969 607.761719 218.632812 601.570312 218.632812 "/>
<path fill-rule="nonzero" fill="rgb(13.729858%, 12.159729%, 12.548828%)" fill-opacity="1" d="M 684.21875 184.476562 L 685.183594 179.851562 L 705.988281 179.851562 L 693.246094 239.839844 C 692.136719 245.074219 691.582031 249.136719 691.582031 252.039062 C 691.582031 255.769531 692.800781 257.628906 695.234375 257.628906 C 697.347656 257.628906 699.984375 256.683594 703.136719 254.78125 L 705.125 258.007812 C 700.035156 262.378906 695.074219 264.5625 690.238281 264.5625 C 687.585938 264.5625 685.410156 263.597656 683.707031 261.660156 C 682.003906 259.726562 681.152344 257.21875 681.152344 254.136719 C 681.152344 250.664062 681.960938 244.890625 683.574219 236.828125 L 692.546875 194.582031 C 693.015625 192.398438 693.246094 190.746094 693.246094 189.636719 C 693.246094 186.195312 690.667969 184.476562 685.507812 184.476562 Z M 684.21875 184.476562 "/>
<path fill-rule="nonzero" fill="rgb(13.729858%, 12.159729%, 12.548828%)" fill-opacity="1" d="M 717.703125 184.476562 L 718.671875 179.851562 L 739.472656 179.851562 L 726.734375 239.839844 C 725.621094 245.074219 725.066406 249.136719 725.066406 252.039062 C 725.066406 255.769531 726.285156 257.628906 728.722656 257.628906 C 730.835938 257.628906 733.46875 256.683594 736.625 254.78125 L 738.613281 258.007812 C 733.523438 262.378906 728.5625 264.5625 723.722656 264.5625 C 721.070312 264.5625 718.894531 263.597656 717.191406 261.660156 C 715.492188 259.726562 714.640625 257.21875 714.640625 254.136719 C 714.640625 250.664062 715.445312 244.890625 717.058594 236.828125 L 726.035156 194.582031 C 726.5 192.398438 726.734375 190.746094 726.734375 189.636719 C 726.734375 186.195312 724.152344 184.476562 718.996094 184.476562 Z M 717.703125 184.476562 "/>
<path fill-rule="nonzero" fill="rgb(13.729858%, 12.159729%, 12.548828%)" fill-opacity="1" d="M 757.480469 233.011719 L 758.554688 233.011719 C 765.039062 233.011719 770.386719 231.4375 774.597656 228.28125 C 778.808594 225.132812 780.914062 221.046875 780.914062 216.027344 C 780.914062 211.117188 778.78125 208.664062 774.519531 208.664062 C 770.96875 208.664062 767.65625 210.894531 764.574219 215.355469 C 761.492188 219.816406 759.128906 225.703125 757.480469 233.011719 M 784.195312 249.726562 C 784.945312 250.195312 785.320312 251.109375 785.320312 252.46875 C 785.320312 255.410156 783.59375 258.160156 780.136719 260.722656 C 776.675781 263.285156 772.046875 264.5625 766.242188 264.5625 C 759.828125 264.5625 754.648438 262.539062 750.707031 258.492188 C 746.765625 254.441406 744.792969 248.886719 744.792969 241.828125 C 744.792969 232.226562 747.894531 223.417969 754.09375 215.410156 C 760.292969 207.402344 768.121094 203.394531 777.582031 203.394531 C 782.238281 203.394531 785.851562 204.507812 788.414062 206.726562 C 790.976562 208.953125 792.257812 212.050781 792.257812 216.027344 C 792.257812 221.976562 789.164062 227.152344 782.984375 231.5625 C 776.804688 235.96875 769.25 238.171875 760.328125 238.171875 L 758.445312 238.171875 C 757.800781 238.171875 757.140625 238.136719 756.457031 238.066406 C 756.3125 239.070312 756.242188 240.609375 756.242188 242.6875 C 756.242188 252.652344 760.273438 257.628906 768.335938 257.628906 C 774.609375 257.628906 779.894531 254.996094 784.195312 249.726562 "/>
<path fill-rule="nonzero" fill="rgb(13.729858%, 12.159729%, 12.548828%)" fill-opacity="1" d="M 837.617188 218.394531 C 837.617188 212.464844 836.113281 209.496094 833.113281 209.496094 C 829.632812 209.496094 825.945312 212.921875 822.046875 219.769531 C 818.144531 226.617188 815.261719 234.359375 813.394531 243.003906 L 809.164062 263.488281 L 798.675781 263.488281 L 808.121094 218.285156 C 808.558594 216.199219 808.78125 214.515625 808.78125 213.234375 C 808.78125 209.683594 805.796875 207.90625 799.828125 207.90625 L 798.894531 207.90625 L 799.9375 203.183594 L 819.820312 203.183594 L 817.457031 219.382812 L 818.613281 219.382812 C 821.613281 212.683594 824.578125 208.125 827.511719 205.707031 C 830.4375 203.292969 833.84375 202.082031 837.726562 202.082031 C 843.878906 202.082031 846.953125 204.664062 846.953125 209.828125 C 846.953125 215.539062 843.839844 218.394531 837.617188 218.394531 "/>
<path fill-rule="nonzero" fill="rgb(100%, 43.136597%, 22.3526%)" fill-opacity="1" d="M 648.628906 221.925781 C 653.546875 224.117188 655.304688 230.886719 652.558594 237.039062 C 649.8125 243.191406 643.601562 246.398438 638.6875 244.207031 C 634.078125 242.148438 632.242188 236.074219 634.292969 230.253906 C 631.285156 238.25 633.730469 246.703125 640.070312 249.53125 C 646.722656 252.5 655.121094 248.160156 658.835938 239.835938 C 662.546875 231.515625 660.167969 222.367188 653.515625 219.398438 C 647.175781 216.570312 639.25 220.394531 635.308594 227.976562 C 638.269531 222.5625 644.019531 219.867188 648.628906 221.925781 "/>
<path fill-rule="nonzero" fill="rgb(100%, 43.136597%, 22.3526%)" fill-opacity="1" d="M 629.289062 266.015625 C 641.25 270.253906 654.761719 264.453125 663.445312 252.664062 C 656.253906 261.460938 645.6875 265.632812 636.28125 262.300781 C 623.5 257.773438 617.730469 241.132812 623.394531 225.140625 C 629.0625 209.144531 644.019531 199.847656 656.800781 204.375 C 667.710938 208.238281 673.484375 220.929688 671.425781 234.507812 C 674.871094 217.308594 667.859375 200.835938 654.101562 195.960938 C 638.644531 190.484375 620.554688 201.730469 613.703125 221.074219 C 606.851562 240.417969 613.828125 260.539062 629.289062 266.015625 "/>
<path fill-rule="nonzero" fill="rgb(13.729858%, 12.159729%, 12.548828%)" fill-opacity="1" d="M 159.144531 295.542969 C 257.121094 294.367188 355.09375 295.398438 453.066406 295.316406 C 564.695312 294.871094 677.351562 294.523438 788.980469 295.238281 C 788.972656 295.390625 831.28125 295.25 830.96875 295.699219 C 830.96875 295.699219 788.980469 296.007812 788.980469 296.007812 C 677.347656 296.722656 564.699219 296.375 453.066406 295.929688 C 355.195312 295.691406 256.714844 297.175781 159.144531 295.542969 "/>
<path fill-rule="nonzero" fill="rgb(13.729858%, 12.159729%, 12.548828%)" fill-opacity="1" d="M 857.113281 187.515625 C 858.640625 187.515625 859.671875 187 859.671875 185.683594 C 859.671875 184.539062 859.082031 183.769531 857.292969 183.769531 L 855.675781 183.769531 L 855.675781 187.515625 Z M 854.09375 182.363281 L 857.53125 182.363281 C 859.480469 182.363281 861.359375 183.101562 861.359375 185.570312 C 861.359375 186.851562 860.5 188.03125 859.390625 188.359375 L 861.839844 192.6875 L 859.980469 192.6875 L 858.042969 188.898438 L 855.675781 188.898438 L 855.675781 192.6875 L 854.09375 192.6875 Z M 865.027344 187.710938 C 865.027344 182.933594 861.679688 179.40625 857.484375 179.40625 C 853.285156 179.40625 849.9375 182.933594 849.9375 187.710938 C 849.9375 192.488281 853.285156 195.925781 857.484375 195.925781 C 861.679688 195.925781 865.027344 192.488281 865.027344 187.710938 M 848.378906 187.710938 C 848.378906 181.902344 852.515625 177.964844 857.484375 177.964844 C 862.449219 177.964844 866.585938 181.902344 866.585938 187.710938 C 866.585938 193.515625 862.449219 197.363281 857.484375 197.363281 C 852.515625 197.363281 848.378906 193.515625 848.378906 187.710938 "/>
</svg>
